<?xml version="1.0" encoding="UTF-8" standalone="no"?>
<!-- Created with Inkscape (http://www.inkscape.org/) -->

<svg
   width="1057.4082mm"
   height="290.6922mm"
   viewBox="0 0 1057.4082 290.6922"
   version="1.1"
   id="svg836"
   inkscape:version="1.2.2 (b0a8486541, 2022-12-01)"
   sodipodi:docname="logo-menu.svg"
   xmlns:inkscape="http://www.inkscape.org/namespaces/inkscape"
   xmlns:sodipodi="http://sodipodi.sourceforge.net/DTD/sodipodi-0.dtd"
   xmlns="http://www.w3.org/2000/svg"
   xmlns:svg="http://www.w3.org/2000/svg">
  <sodipodi:namedview
     id="namedview838"
     pagecolor="#505050"
     bordercolor="#eeeeee"
     borderopacity="1"
     inkscape:showpageshadow="0"
     inkscape:pageopacity="0"
     inkscape:pagecheckerboard="0"
     inkscape:deskcolor="#505050"
     inkscape:document-units="mm"
     showgrid="false"
     inkscape:zoom="0.13811175"
     inkscape:cx="2646.4077"
     inkscape:cy="1122.2796"
     inkscape:window-width="1920"
     inkscape:window-height="1043"
     inkscape:window-x="0"
     inkscape:window-y="0"
     inkscape:window-maximized="1"
     inkscape:current-layer="layer1" />
  <defs
     id="defs833">
    <clipPath
       clipPathUnits="userSpaceOnUse"
       id="clipPath1301">
      <path
         style="fill:#d5320c;stroke:#661100;stroke-width:0;stroke-dasharray:none"
         d="m 2730.7461,571.36879 19.2338,5.58821 -2.9569,17.61078 -22.6378,5.23848 -29.373,2.99342 -16.8381,-2.61924 -3.9287,-11.5995 -18.709,-17.21215 3.9291,-11.7866 14.5928,-2.80633 17.5863,1.30963 9.5414,12.34784 z"
         id="path1303" />
    </clipPath>
    <clipPath
       clipPathUnits="userSpaceOnUse"
       id="clipPath4615">
      <path
         style="fill:#10c287;fill-opacity:1;stroke:none;stroke-width:15;stroke-dasharray:none;stroke-opacity:1"
         d="m 2707.5204,436.34442 0.1871,1.23947 9.5181,26.28596 13.4112,24.09174 4.7625,17.19791 3.175,18.78542 c 0,0 0.2646,13.22917 0.2646,14.2875 0,1.05831 -3.9688,20.6375 -3.9688,20.6375 l -0.7318,14.52314 0.7236,1.34048 6.7345,2.52905 6.9908,-1.41179 0.158,-0.0889 23.5079,-32.12219 -7.2964,-66.0423 -18.709,-26.56655 -64.5456,-57.62331 c 0,0 -62.3004,15.90249 -63.0489,16.27669 -0.7482,0.3742 -32.7406,16.65089 -36.4823,20.76685 -3.7417,4.11597 -28.0633,24.69571 -28.0633,24.69571 0,0 -14.5928,35.54685 -14.5928,36.66937 0,1.12252 8.2319,124.78816 8.2319,124.78816 l 53.3202,36.10811 c 0,0 78.0161,6.17392 79.1385,6.17392 1.1226,0 27.6891,-6.92232 27.6891,-8.41901 0,-1.4967 -3.5546,-24.88277 -3.5546,-24.88277 l -0.1871,-11.22532 -16.2766,-1.12257 -14.7802,4.49016 -21.5151,0.18709 -21.3281,-3.18053 -12.7222,-7.29644 -13.2831,-11.03826 -14.9673,-12.5349 c 0,0 -5.6126,-10.85117 -6.5479,-12.16078 -0.9355,-1.30963 -4.4902,-14.78002 -4.4902,-14.78002 l -1.4968,-10.47697 -0.7482,-32.92758 4.677,-13.47039 6.1741,-12.72201 13.0961,-13.2833 8.7931,-9.35445 20.7669,-9.35445 3.5547,-5.42555 -0.9639,-2.86104 -12.0054,-12.99353 13.9049,-14.82799 42.282,0.74837 z"
         id="path4617" />
    </clipPath>
    <clipPath
       clipPathUnits="userSpaceOnUse"
       id="clipPath4615-5">
      <path
         style="fill:#10c287;fill-opacity:1;stroke:none;stroke-width:15;stroke-dasharray:none;stroke-opacity:1"
         d="m 2707.5204,436.34442 0.1871,1.23947 9.5181,26.28596 13.4112,24.09174 4.7625,17.19791 3.175,18.78542 c 0,0 0.2646,13.22917 0.2646,14.2875 0,1.05831 -3.9688,20.6375 -3.9688,20.6375 l -0.7318,14.52314 0.7236,1.34048 6.7345,2.52905 6.9908,-1.41179 0.158,-0.0889 23.5079,-32.12219 -7.2964,-66.0423 -18.709,-26.56655 -64.5456,-57.62331 c 0,0 -62.3004,15.90249 -63.0489,16.27669 -0.7482,0.3742 -32.7406,16.65089 -36.4823,20.76685 -3.7417,4.11597 -28.0633,24.69571 -28.0633,24.69571 0,0 -14.5928,35.54685 -14.5928,36.66937 0,1.12252 8.2319,124.78816 8.2319,124.78816 l 53.3202,36.10811 c 0,0 78.0161,6.17392 79.1385,6.17392 1.1226,0 27.6891,-6.92232 27.6891,-8.41901 0,-1.4967 -3.5546,-24.88277 -3.5546,-24.88277 l -0.1871,-11.22532 -16.2766,-1.12257 -14.7802,4.49016 -21.5151,0.18709 -21.3281,-3.18053 -12.7222,-7.29644 -13.2831,-11.03826 -14.9673,-12.5349 c 0,0 -5.6126,-10.85117 -6.5479,-12.16078 -0.9355,-1.30963 -4.4902,-14.78002 -4.4902,-14.78002 l -1.4968,-10.47697 -0.7482,-32.92758 4.677,-13.47039 6.1741,-12.72201 13.0961,-13.2833 8.7931,-9.35445 20.7669,-9.35445 3.5547,-5.42555 -0.9639,-2.86104 -12.0054,-12.99353 13.9049,-14.82799 42.282,0.74837 z"
         id="path4617-6" />
    </clipPath>
    <clipPath
       clipPathUnits="userSpaceOnUse"
       id="clipPath1301-2">
      <path
         style="fill:#d5320c;stroke:#661100;stroke-width:0;stroke-dasharray:none"
         d="m 2730.7461,571.36879 19.2338,5.58821 -2.9569,17.61078 -22.6378,5.23848 -29.373,2.99342 -16.8381,-2.61924 -3.9287,-11.5995 -18.709,-17.21215 3.9291,-11.7866 14.5928,-2.80633 17.5863,1.30963 9.5414,12.34784 z"
         id="path1303-8" />
    </clipPath>
    <clipPath
       clipPathUnits="userSpaceOnUse"
       id="clipPath10898-4">
      <rect
         style="fill:#10c287;fill-opacity:1;stroke:none;stroke-width:24.5028;stroke-dasharray:none;stroke-opacity:1"
         id="rect10900-5"
         width="127.93327"
         height="121.38268"
         x="100.99586"
         y="431.6091"
         transform="scale(-1,1)" />
    </clipPath>
    <clipPath
       clipPathUnits="userSpaceOnUse"
       id="clipPath10863-2">
      <rect
         style="fill:#10c287;fill-opacity:1;stroke:none;stroke-width:17.3954;stroke-dasharray:none;stroke-opacity:1"
         id="rect10865-5"
         width="127.93327"
         height="61.178131"
         x="-854.83447"
         y="462.41409"
         transform="scale(-1,1)" />
    </clipPath>
    <inkscape:path-effect
       effect="fillet_chamfer"
       id="path-effect14258"
       is_visible="true"
       lpeversion="1"
       nodesatellites_param="F,1,0,1,0,0.15,0,10 @ F,1,0,1,0,0.33525905,0,10 @ F,1,0,1,0,0.20703027,0,10 @ F,1,0,1,0,0.55422033,0,10"
       unit="px"
       method="bezier"
       mode="F"
       radius="15"
       chamfer_steps="10"
       flexible="true"
       use_knot_distance="true"
       apply_no_radius="true"
       apply_with_radius="true"
       only_selected="false"
       hide_knots="false" />
    <clipPath
       clipPathUnits="userSpaceOnUse"
       id="clipPath10898-4-7">
      <rect
         style="fill:#10c287;fill-opacity:1;stroke:none;stroke-width:24.5028;stroke-dasharray:none;stroke-opacity:1"
         id="rect10900-5-8"
         width="127.93327"
         height="121.38268"
         x="100.99586"
         y="431.6091"
         transform="scale(-1,1)" />
    </clipPath>
    <clipPath
       clipPathUnits="userSpaceOnUse"
       id="clipPath10863-2-6">
      <rect
         style="fill:#10c287;fill-opacity:1;stroke:none;stroke-width:17.3954;stroke-dasharray:none;stroke-opacity:1"
         id="rect10865-5-8"
         width="127.93327"
         height="61.178131"
         x="-854.83447"
         y="462.41409"
         transform="scale(-1,1)" />
    </clipPath>
    <inkscape:path-effect
       effect="fillet_chamfer"
       id="path-effect14258-8"
       is_visible="true"
       lpeversion="1"
       nodesatellites_param="F,1,0,1,0,0.15,0,10 @ F,1,0,1,0,0.33525905,0,10 @ F,1,0,1,0,0.20703027,0,10 @ F,1,0,1,0,0.55422033,0,10"
       unit="px"
       method="bezier"
       mode="F"
       radius="15"
       chamfer_steps="10"
       flexible="true"
       use_knot_distance="true"
       apply_no_radius="true"
       apply_with_radius="true"
       only_selected="false"
       hide_knots="false" />
  </defs>
  <g
     inkscape:label="Layer 1"
     inkscape:groupmode="layer"
     id="layer1"
     transform="translate(-319.51326,49.69978)">
    <text
       xml:space="preserve"
       style="font-style:normal;font-variant:normal;font-weight:normal;font-stretch:normal;font-size:211.667px;font-family:'SF Pro Display';-inkscape-font-specification:'SF Pro Display, Normal';font-variant-ligatures:normal;font-variant-caps:normal;font-variant-numeric:normal;font-variant-east-asian:normal;fill:#999999;fill-opacity:1;stroke:none;stroke-width:13.7;stroke-dasharray:none;stroke-opacity:1"
       x="575.83221"
       y="194.66533"
       id="text2590-7"
       inkscape:export-filename="logo.png"
       inkscape:export-xdpi="96"
       inkscape:export-ydpi="96"><tspan
         sodipodi:role="line"
         id="tspan2588-3"
         style="fill:#999999;fill-opacity:1;stroke-width:13.7"
         x="575.83221"
         y="194.66533">dor<tspan
   style="font-style:normal;font-variant:normal;font-weight:normal;font-stretch:normal;font-size:141.111px;font-family:'SF Pro Display';-inkscape-font-specification:'SF Pro Display, Normal';font-variant-ligatures:normal;font-variant-caps:normal;font-variant-numeric:normal;font-variant-east-asian:normal;fill:#999999;fill-opacity:1"
   id="tspan4851"> </tspan>thm</tspan></text>
    <rect
       style="fill:#999999;fill-opacity:1;stroke:none;stroke-width:15;stroke-dasharray:none;stroke-opacity:1"
       id="rect4671"
       width="19.831398"
       height="115.80788"
       x="945.60638"
       y="79.002197" />
    <circle
       style="fill:#8a5826;fill-opacity:1;stroke:none;stroke-width:11.4386;stroke-dasharray:none;stroke-opacity:1"
       id="path4725"
       cx="955.52191"
       cy="49.816166"
       r="9.9154997" />
    <path
       d="m 485.78022,121.85582 c 0,26.02917 -21.10121,47.13037 -47.13038,47.13037 -26.03014,0 -47.13134,-21.1012 -47.13134,-47.13037 0,-26.030143 21.1012,-47.131343 47.13134,-47.131343 26.02917,0 47.13038,21.1012 47.13038,47.131343 z m 0,0 v 15.71012 c 0,17.35361 14.06787,31.42025 31.42146,31.42025 11.14629,0 20.93869,-5.80407 26.5155,-14.55663 3.1061,-4.87176 4.90475,-10.65752 4.90475,-16.86362 v -15.71012 c 0,-60.735863 -49.23572,-109.972093 -109.97209,-109.972093 -60.73586,0 -109.97208,49.23623 -109.97208,109.972093 0,60.73636 49.23622,109.97209 109.97208,109.97209 23.3654,0 45.02869,-7.28626 62.84172,-19.71189"
       stroke="#000000"
       stroke-width="18.3287"
       stroke-linecap="round"
       stroke-linejoin="round"
       id="path7611-7"
       style="fill:#000000;fill-opacity:0;stroke:#999999;stroke-width:18.329;stroke-dasharray:none;stroke-opacity:1" />
    <path
       d="m -114.50975,487.62354 c 0,26.02917 -21.10121,47.13037 -47.13038,47.13037 -26.03014,0 -47.13134,-21.1012 -47.13134,-47.13037 0,-26.03014 21.1012,-47.13134 47.13134,-47.13134 26.02917,0 47.13038,21.1012 47.13038,47.13134 z m 0,0 v 15.71012 c 0,17.35361 14.06787,31.42025 31.42146,31.42025 11.14629,0 20.93869,-5.80407 26.5155,-14.55663 3.1061,-4.87176 4.90475,-10.65752 4.90475,-16.86362 v -15.71012 c 0,-60.73586 -49.23572,-109.97209 -109.97209,-109.97209 -60.73586,0 -109.97208,49.23623 -109.97208,109.97209 0,60.73636 49.23622,109.97209 109.97208,109.97209 23.3654,0 45.02869,-7.28626 62.84172,-19.71189"
       stroke="#000000"
       stroke-width="18.3287"
       stroke-linecap="round"
       stroke-linejoin="round"
       id="path7611"
       style="fill:#000000;fill-opacity:0;stroke:#8a5826;stroke-opacity:1"
       clip-path="url(#clipPath10898-4)"
       transform="translate(600.29157,-365.71243)" />
    <path
       d="m 730.96756,459.59793 c 0,26.02917 -21.10121,47.13037 -47.13038,47.13037 -26.03014,0 -47.13134,-21.1012 -47.13134,-47.13037 0,-26.03014 21.1012,-47.13134 47.13134,-47.13134 26.02917,0 47.13038,21.1012 47.13038,47.13134 z m 0,0 v 15.71012 c 0,17.35361 14.06787,31.42025 31.42146,31.42025 11.14629,0 20.93869,-5.80407 26.5155,-14.55663 3.1061,-4.87176 4.90475,-10.65752 4.90475,-16.86362 v -15.71012 c 0,-60.73586 -49.23572,-109.97209 -109.97209,-109.97209 -60.73586,0 -109.97208,49.23623 -109.97208,109.97209 0,60.73636 49.23622,109.97209 109.97208,109.97209 23.3654,0 45.02869,-7.28626 62.84172,-19.71189"
       stroke="#000000"
       stroke-width="18.3287"
       stroke-linecap="round"
       stroke-linejoin="round"
       id="path7611-6"
       style="fill:#000000;fill-opacity:0;stroke:#8a5826;stroke-opacity:1"
       clip-path="url(#clipPath10863-2)"
       transform="translate(-245.21403,-337.73687)" />
    <circle
       style="fill:#8a5826;fill-opacity:1;stroke:none;stroke-width:0.779281;stroke-opacity:1"
       id="path11036"
       cx="548.60419"
       cy="125.31841"
       r="9.1645002" />
    <rect
       style="fill:#8a5826;fill-opacity:1;stroke:none;stroke-width:11.8646;stroke-dasharray:none;stroke-opacity:1"
       id="rect1388-3-8-3-7-0"
       width="17.9247"
       height="203.12468"
       x="-494.83588"
       y="-49.69978"
       transform="scale(-1,1)"
       ry="8.9623499" />
    <path
       style="fill:#8a5826;fill-opacity:1;stroke:none;stroke-width:18.329;stroke-dasharray:none;stroke-opacity:1"
       d="m 453.90021,3.6872133 c 17.15488,2.2059572 45.68965,9.6603157 70.94716,36.0432317 2.90335,3.032721 4.0842,8.891366 2.83637,12.900707 l -0.0287,0.09217 c -2.45832,7.89869 -8.02941,8.573284 -13.54774,2.422656 -12.88907,-14.36593 -34.24308,-30.038949 -63.73625,-33.43533 -5.77393,-0.664916 -9.10235,-5.164937 -7.37488,-10.717024 l 0.0125,-0.04026 c 1.38255,-4.4435121 6.27688,-7.8595516 10.8915,-7.2661537 z"
       id="path13530"
       sodipodi:nodetypes="ccccc"
       inkscape:path-effect="#path-effect14258"
       inkscape:original-d="m 445.51204,2.9076767 c 15.50999,0.89659 53.34262,6.00814 84.4311,42.4639203 l -6.73928,21.65357 c -11.15493,-17.51202 -39.2354,-45.42796 -83.33554,-45.9786 z" />
  </g>
</svg>
