<?xml version="1.0" encoding="UTF-8" standalone="no"?>
<!-- Created with Inkscape (http://www.inkscape.org/) -->

<svg
   width="258.50153mm"
   height="290.6922mm"
   viewBox="0 0 258.50153 290.6922"
   version="1.1"
   id="svg17282"
   sodipodi:docname="menus-qr.svg"
   inkscape:version="1.2.2 (b0a8486541, 2022-12-01)"
   xmlns:inkscape="http://www.inkscape.org/namespaces/inkscape"
   xmlns:sodipodi="http://sodipodi.sourceforge.net/DTD/sodipodi-0.dtd"
   xmlns="http://www.w3.org/2000/svg"
   xmlns:svg="http://www.w3.org/2000/svg">
  <sodipodi:namedview
     id="namedview17284"
     pagecolor="#505050"
     bordercolor="#eeeeee"
     borderopacity="1"
     inkscape:showpageshadow="0"
     inkscape:pageopacity="0"
     inkscape:pagecheckerboard="0"
     inkscape:deskcolor="#505050"
     inkscape:document-units="mm"
     showgrid="false"
     inkscape:zoom="0.25638077"
     inkscape:cx="290.58342"
     inkscape:cy="577.26639"
     inkscape:window-width="1452"
     inkscape:window-height="991"
     inkscape:window-x="26"
     inkscape:window-y="23"
     inkscape:window-maximized="0"
     inkscape:current-layer="layer1" />
  <defs
     id="defs17279">
    <clipPath
       clipPathUnits="userSpaceOnUse"
       id="clipPath10898-4-7">
      <rect
         style="fill:#10c287;fill-opacity:1;stroke:none;stroke-width:24.5028;stroke-dasharray:none;stroke-opacity:1"
         id="rect10900-5-8"
         width="127.93327"
         height="121.38268"
         x="100.99586"
         y="431.6091"
         transform="scale(-1,1)" />
    </clipPath>
    <clipPath
       clipPathUnits="userSpaceOnUse"
       id="clipPath10863-2-6">
      <rect
         style="fill:#10c287;fill-opacity:1;stroke:none;stroke-width:17.3954;stroke-dasharray:none;stroke-opacity:1"
         id="rect10865-5-8"
         width="127.93327"
         height="61.178131"
         x="-854.83447"
         y="462.41409"
         transform="scale(-1,1)" />
    </clipPath>
    <inkscape:path-effect
       effect="fillet_chamfer"
       id="path-effect14258-8"
       is_visible="true"
       lpeversion="1"
       nodesatellites_param="F,1,0,1,0,0.15,0,10 @ F,1,0,1,0,0.33525905,0,10 @ F,1,0,1,0,0.20703027,0,10 @ F,1,0,1,0,0.55422033,0,10"
       unit="px"
       method="bezier"
       mode="F"
       radius="15"
       chamfer_steps="10"
       flexible="true"
       use_knot_distance="true"
       apply_no_radius="true"
       apply_with_radius="true"
       only_selected="false"
       hide_knots="false" />
  </defs>
  <g
     inkscape:label="Layer 1"
     inkscape:groupmode="layer"
     id="layer1"
     transform="translate(17.080484,11.787028)">
    <path
       d="m 149.18648,159.76857 c 0,26.02917 -21.10121,47.13037 -47.13038,47.13037 -26.030143,0 -47.131343,-21.1012 -47.131343,-47.13037 0,-26.03014 21.1012,-47.13134 47.131343,-47.13134 26.02917,0 47.13038,21.1012 47.13038,47.13134 z m 0,0 v 15.71012 c 0,17.35361 14.06787,31.42025 31.42146,31.42025 11.14629,0 20.93864,-5.80407 26.51554,-14.55663 3.1061,-4.87176 4.9047,-10.65752 4.9047,-16.86362 v -15.71012 c 0,-60.735861 -49.23571,-109.972091 -109.97208,-109.972091 -60.735863,0 -109.9720835,49.23623 -109.9720835,109.972091 0,60.73636 49.2362205,109.97209 109.9720835,109.97209 23.3654,0 45.02869,-7.28626 62.84172,-19.71189"
       stroke="#000000"
       stroke-width="18.3287"
       stroke-linecap="round"
       stroke-linejoin="round"
       id="path7611-7-4"
       style="fill:#000000;fill-opacity:0;stroke:#999999;stroke-width:18.329;stroke-dasharray:none;stroke-opacity:1"
       inkscape:export-filename="logo-icon.png"
       inkscape:export-xdpi="96"
       inkscape:export-ydpi="96" />
    <path
       d="m -114.50975,487.62354 c 0,26.02917 -21.10121,47.13037 -47.13038,47.13037 -26.03014,0 -47.13134,-21.1012 -47.13134,-47.13037 0,-26.03014 21.1012,-47.13134 47.13134,-47.13134 26.02917,0 47.13038,21.1012 47.13038,47.13134 z m 0,0 v 15.71012 c 0,17.35361 14.06787,31.42025 31.42146,31.42025 11.14629,0 20.93869,-5.80407 26.5155,-14.55663 3.1061,-4.87176 4.90475,-10.65752 4.90475,-16.86362 v -15.71012 c 0,-60.73586 -49.23572,-109.97209 -109.97209,-109.97209 -60.73586,0 -109.97208,49.23623 -109.97208,109.97209 0,60.73636 49.23622,109.97209 109.97208,109.97209 23.3654,0 45.02869,-7.28626 62.84172,-19.71189"
       stroke="#000000"
       stroke-width="18.3287"
       stroke-linecap="round"
       stroke-linejoin="round"
       id="path7611-3"
       style="fill:#000000;fill-opacity:0;stroke:#8a5826;stroke-opacity:1"
       clip-path="url(#clipPath10898-4-7)"
       transform="translate(263.69778,-327.79968)" />
    <path
       d="m 730.96756,459.59793 c 0,26.02917 -21.10121,47.13037 -47.13038,47.13037 -26.03014,0 -47.13134,-21.1012 -47.13134,-47.13037 0,-26.03014 21.1012,-47.13134 47.13134,-47.13134 26.02917,0 47.13038,21.1012 47.13038,47.13134 z m 0,0 v 15.71012 c 0,17.35361 14.06787,31.42025 31.42146,31.42025 11.14629,0 20.93869,-5.80407 26.5155,-14.55663 3.1061,-4.87176 4.90475,-10.65752 4.90475,-16.86362 v -15.71012 c 0,-60.73586 -49.23572,-109.97209 -109.97209,-109.97209 -60.73586,0 -109.97208,49.23623 -109.97208,109.97209 0,60.73636 49.23622,109.97209 109.97208,109.97209 23.3654,0 45.02869,-7.28626 62.84172,-19.71189"
       stroke="#000000"
       stroke-width="18.3287"
       stroke-linecap="round"
       stroke-linejoin="round"
       id="path7611-6-1"
       style="fill:#000000;fill-opacity:0;stroke:#8a5826;stroke-opacity:1"
       clip-path="url(#clipPath10863-2-6)"
       transform="translate(-581.80777,-299.82412)" />
    <circle
       style="fill:#8a5826;fill-opacity:1;stroke:none;stroke-width:0.779281;stroke-opacity:1"
       id="path11036-4"
       cx="212.01047"
       cy="163.23117"
       r="9.1645002" />
    <rect
       style="fill:#8a5826;fill-opacity:1;stroke:none;stroke-width:11.8646;stroke-dasharray:none;stroke-opacity:1"
       id="rect1388-3-8-3-7-0-9"
       width="17.9247"
       height="203.12468"
       x="-158.2421"
       y="-11.787028"
       transform="scale(-1,1)"
       ry="8.9623499" />
    <path
       style="fill:#8a5826;fill-opacity:1;stroke:none;stroke-width:18.329;stroke-dasharray:none;stroke-opacity:1"
       d="m 117.30647,41.599966 c 17.15488,2.205957 45.68965,9.660316 70.94716,36.04323 2.90335,3.032722 4.0842,8.891367 2.83637,12.900709 l -0.0287,0.09217 c -2.45832,7.89869 -8.02941,8.573284 -13.54774,2.422655 -12.88907,-14.36593 -34.24308,-30.038949 -63.73625,-33.43533 -5.77393,-0.664916 -9.10235,-5.164937 -7.37488,-10.717024 l 0.0125,-0.04026 c 1.38255,-4.443512 6.27688,-7.859551 10.8915,-7.266153 z"
       id="path13530-2"
       sodipodi:nodetypes="ccccc"
       inkscape:path-effect="#path-effect14258-8"
       inkscape:original-d="m 108.9183,40.820429 c 15.50999,0.89659 53.34262,6.00814 84.4311,42.46392 l -6.73928,21.653571 C 175.45519,87.425899 147.37472,59.509959 103.27458,58.959319 Z" />
    <circle
       style="fill:#8a5826;fill-opacity:1;stroke:none;stroke-width:11.4386;stroke-dasharray:none;stroke-opacity:1"
       id="path4725-0"
       cx="231.50555"
       cy="66.637993"
       r="9.9154997" />
  </g>
</svg>
