<svg width="248" height="248" viewBox="0 0 248 248" fill="none" xmlns="http://www.w3.org/2000/svg">
<path d="M124 0C192.5 0 248 55.5 248 124C248 192.5 192.5 248 124 248C55.5 248 0 192.5 0 124C0 55.5 55.5 0 124 0ZM184.5 157L152 124L184.5 91.5C187 89.5 187 85.5 184.5 83L165 63.5C162.5 61 158.5 61 156.5 63.5L124 96L91.5 63.5C89 61 85 61 83 63.5L63 83C60.5 85.5 60.5 89.5 63 91.5L96 124L63 156.5C60.5 159 60.5 163 63 165L82.5 185C85 187.5 89 187.5 91 185L124 152L156.5 185C158.5 187.5 162.5 187.5 165 185L184.5 165.5C187 163 187 159 184.5 157Z" fill="#1B1B1B" fill-opacity="0.2"/>
</svg>
