<?xml version="1.0" encoding="UTF-8" standalone="no"?>
<!-- Created with Inkscape (http://www.inkscape.org/) -->

<svg
   width="1002.8463mm"
   height="290.6922mm"
   viewBox="0 0 1002.8462 290.6922"
   version="1.1"
   id="svg836"
   inkscape:version="1.2.2 (b0a8486541, 2022-12-01)"
   sodipodi:docname="logo.svg"
   xmlns:inkscape="http://www.inkscape.org/namespaces/inkscape"
   xmlns:sodipodi="http://sodipodi.sourceforge.net/DTD/sodipodi-0.dtd"
   xmlns="http://www.w3.org/2000/svg"
   xmlns:svg="http://www.w3.org/2000/svg">
  <sodipodi:namedview
     id="namedview838"
     pagecolor="#505050"
     bordercolor="#eeeeee"
     borderopacity="1"
     inkscape:showpageshadow="0"
     inkscape:pageopacity="0"
     inkscape:pagecheckerboard="0"
     inkscape:deskcolor="#505050"
     inkscape:document-units="mm"
     showgrid="false"
     inkscape:zoom="0.39063902"
     inkscape:cx="1651.1407"
     inkscape:cy="821.73051"
     inkscape:window-width="2560"
     inkscape:window-height="1015"
     inkscape:window-x="0"
     inkscape:window-y="0"
     inkscape:window-maximized="1"
     inkscape:current-layer="text2590-7" />
  <defs
     id="defs833">
    <inkscape:path-effect
       effect="fillet_chamfer"
       id="path-effect13332"
       is_visible="true"
       lpeversion="1"
       nodesatellites_param="F,0,0,1,0,9.525,0,1 @ F,0,0,1,0,9.525,0,1 @ F,0,0,1,0,9.525,0,1 @ F,0,0,1,0,9.525,0,1 @ F,0,0,1,0,9.525,0,1 @ F,0,0,1,0,9.525,0,1 @ F,0,0,1,0,9.525,0,1 @ F,0,0,1,0,9.525,0,1 @ F,0,0,1,0,9.525,0,1 @ F,0,0,1,0,9.525,0,1 @ F,0,0,1,0,9.525,0,1 @ F,0,0,1,0,9.525,0,1 @ F,0,0,1,0,9.525,0,1 @ F,0,0,1,0,9.525,0,1 @ F,0,0,1,0,9.525,0,1 @ F,0,0,1,0,9.525,0,1 @ F,0,0,1,0,9.525,0,1 @ F,0,0,1,0,9.525,0,1 @ F,0,0,1,0,9.525,0,1 @ F,0,0,1,0,9.525,0,1 @ F,0,0,1,0,9.525,0,1 @ F,0,0,1,0,9.525,0,1 @ F,0,0,1,0,9.525,0,1 @ F,0,0,1,0,9.525,0,1 @ F,0,0,1,0,9.525,0,1 @ F,0,0,1,0,9.525,0,1 @ F,0,0,1,0,9.525,0,1"
       unit="px"
       method="auto"
       mode="F"
       radius="36"
       chamfer_steps="1"
       flexible="false"
       use_knot_distance="true"
       apply_no_radius="true"
       apply_with_radius="true"
       only_selected="false"
       hide_knots="false" />
    <inkscape:path-effect
       effect="fillet_chamfer"
       id="path-effect13330"
       is_visible="true"
       lpeversion="1"
       nodesatellites_param="F,0,0,1,0,7.9375,0,1 @ F,0,0,1,0,9.7686817,0,1 @ F,0,1,1,0,9.581661,0,1 @ F,0,1,1,0,9.581661,0,1 @ F,0,0,1,0,7.9375,0,1 @ F,0,0,1,0,7.9375,0,1 @ F,0,0,1,0,7.9375,0,1 @ F,0,0,1,0,7.9375,0,1 @ F,0,0,1,0,10.045327,0,1 @ F,0,0,1,0,9.581661,0,1 @ F,0,0,1,0,9.7048532,0,1 @ F,0,0,1,0,9.4024123,0,1 @ F,0,0,1,0,7.9375,0,1 @ F,0,0,1,0,7.9375,0,1 @ F,0,0,1,0,7.9375,0,1 @ F,0,0,1,0,7.9375,0,1"
       unit="px"
       method="auto"
       mode="F"
       radius="30"
       chamfer_steps="1"
       flexible="false"
       use_knot_distance="true"
       apply_no_radius="true"
       apply_with_radius="true"
       only_selected="false"
       hide_knots="false" />
    <inkscape:path-effect
       effect="fillet_chamfer"
       id="path-effect13328"
       is_visible="true"
       lpeversion="1"
       nodesatellites_param="F,0,0,1,0,9.6329222,0,1 @ F,0,0,1,0,5.2587203,0,1 @ F,0,0,1,0,7.9375,0,1 @ F,0,0,1,0,7.9375,0,1 @ F,0,0,1,0,5.1163041,0,1 @ F,0,0,1,0,7.9375,0,1 @ F,0,0,1,0,7.9375,0,1 @ F,0,0,1,0,7.9375,0,1 @ F,0,0,1,0,7.9375,0,1 @ F,0,0,1,0,7.9375,0,1 @ F,0,0,1,0,7.9375,0,1 @ F,0,0,1,0,7.9375,0,1 @ F,0,0,1,0,7.9375,0,1 @ F,0,0,1,0,4.2236893,0,1 @ F,0,0,1,0,7.9375,0,1 @ F,0,0,1,0,7.9375,0,1 @ F,0,0,1,0,4.7680978,0,1 @ F,0,0,1,0,9.6329222,0,1"
       unit="px"
       method="auto"
       mode="F"
       radius="30"
       chamfer_steps="1"
       flexible="false"
       use_knot_distance="true"
       apply_no_radius="true"
       apply_with_radius="true"
       only_selected="false"
       hide_knots="false" />
    <inkscape:path-effect
       effect="fillet_chamfer"
       id="path-effect13326"
       is_visible="true"
       lpeversion="1"
       nodesatellites_param="F,0,0,1,0,11.596496,0,1 @ F,0,0,1,0,7.9375,0,1 @ F,0,0,1,0,10.700164,0,1 @ F,0,0,1,0,10.700164,0,1 @ F,0,0,1,0,7.9375,0,1 @ F,0,0,1,0,9.7096486,0,1 @ F,0,0,1,0,9.3157643,0,1 @ F,0,0,1,0,9.9969592,0,1 @ F,0,0,1,0,9.1554491,0,1 @ F,0,0,1,0,7.9375,0,1 @ F,0,0,1,0,7.9375,0,1 @ F,0,0,1,0,7.9375,0,1 @ F,0,0,1,0,0,0,1 @ F,0,0,1,0,7.9375,0,1"
       unit="px"
       method="auto"
       mode="F"
       radius="30"
       chamfer_steps="1"
       flexible="false"
       use_knot_distance="true"
       apply_no_radius="true"
       apply_with_radius="true"
       only_selected="false"
       hide_knots="false" />
    <inkscape:path-effect
       effect="fillet_chamfer"
       id="path-effect13324"
       is_visible="true"
       lpeversion="1"
       nodesatellites_param="F,0,0,1,0,7.9375,0,1 @ F,0,0,1,0,9.5895506,0,1 @ F,0,0,1,0,9.4718058,0,1 @ F,0,0,1,0,9.5700859,0,1 @ F,0,0,1,0,9.4001799,0,1 @ F,0,0,1,0,7.9375,0,1 @ F,0,0,1,0,7.9375,0,1 @ F,0,0,1,0,7.9375,0,1 @ F,0,0,1,0,7.9375,0,1 @ F,0,0,1,0,7.9375,0,1 @ F,0,0,1,0,7.9375,0,1 @ F,0,0,1,0,7.9375,0,1 @ F,0,0,1,0,7.9375,0,1 | F,0,0,1,0,7.9375,0,1 @ F,0,0,1,0,7.9375,0,1 @ F,0,0,1,0,7.9375,0,1 @ F,0,0,1,0,7.9375,0,1 @ F,0,0,1,0,7.9375,0,1 @ F,0,0,1,0,7.9375,0,1 @ F,0,0,1,0,7.9375,0,1 @ F,0,0,1,0,7.9375,0,1"
       unit="px"
       method="auto"
       mode="F"
       radius="30"
       chamfer_steps="1"
       flexible="false"
       use_knot_distance="true"
       apply_no_radius="true"
       apply_with_radius="true"
       only_selected="false"
       hide_knots="false" />
    <inkscape:path-effect
       effect="clone_original"
       linkeditem=""
       id="path-effect11821"
       is_visible="true"
       lpeversion="1"
       method="d"
       attributes=""
       css_properties=""
       allow_transforms="true" />
    <clipPath
       clipPathUnits="userSpaceOnUse"
       id="clipPath1301">
      <path
         style="fill:#d5320c;stroke:#661100;stroke-width:0;stroke-dasharray:none"
         d="m 2730.7461,571.36879 19.2338,5.58821 -2.9569,17.61078 -22.6378,5.23848 -29.373,2.99342 -16.8381,-2.61924 -3.9287,-11.5995 -18.709,-17.21215 3.9291,-11.7866 14.5928,-2.80633 17.5863,1.30963 9.5414,12.34784 z"
         id="path1303" />
    </clipPath>
    <clipPath
       clipPathUnits="userSpaceOnUse"
       id="clipPath4615">
      <path
         style="fill:#10c287;fill-opacity:1;stroke:none;stroke-width:15;stroke-dasharray:none;stroke-opacity:1"
         d="m 2707.5204,436.34442 0.1871,1.23947 9.5181,26.28596 13.4112,24.09174 4.7625,17.19791 3.175,18.78542 c 0,0 0.2646,13.22917 0.2646,14.2875 0,1.05831 -3.9688,20.6375 -3.9688,20.6375 l -0.7318,14.52314 0.7236,1.34048 6.7345,2.52905 6.9908,-1.41179 0.158,-0.0889 23.5079,-32.12219 -7.2964,-66.0423 -18.709,-26.56655 -64.5456,-57.62331 c 0,0 -62.3004,15.90249 -63.0489,16.27669 -0.7482,0.3742 -32.7406,16.65089 -36.4823,20.76685 -3.7417,4.11597 -28.0633,24.69571 -28.0633,24.69571 0,0 -14.5928,35.54685 -14.5928,36.66937 0,1.12252 8.2319,124.78816 8.2319,124.78816 l 53.3202,36.10811 c 0,0 78.0161,6.17392 79.1385,6.17392 1.1226,0 27.6891,-6.92232 27.6891,-8.41901 0,-1.4967 -3.5546,-24.88277 -3.5546,-24.88277 l -0.1871,-11.22532 -16.2766,-1.12257 -14.7802,4.49016 -21.5151,0.18709 -21.3281,-3.18053 -12.7222,-7.29644 -13.2831,-11.03826 -14.9673,-12.5349 c 0,0 -5.6126,-10.85117 -6.5479,-12.16078 -0.9355,-1.30963 -4.4902,-14.78002 -4.4902,-14.78002 l -1.4968,-10.47697 -0.7482,-32.92758 4.677,-13.47039 6.1741,-12.72201 13.0961,-13.2833 8.7931,-9.35445 20.7669,-9.35445 3.5547,-5.42555 -0.9639,-2.86104 -12.0054,-12.99353 13.9049,-14.82799 42.282,0.74837 z"
         id="path4617" />
    </clipPath>
    <clipPath
       clipPathUnits="userSpaceOnUse"
       id="clipPath4615-5">
      <path
         style="fill:#10c287;fill-opacity:1;stroke:none;stroke-width:15;stroke-dasharray:none;stroke-opacity:1"
         d="m 2707.5204,436.34442 0.1871,1.23947 9.5181,26.28596 13.4112,24.09174 4.7625,17.19791 3.175,18.78542 c 0,0 0.2646,13.22917 0.2646,14.2875 0,1.05831 -3.9688,20.6375 -3.9688,20.6375 l -0.7318,14.52314 0.7236,1.34048 6.7345,2.52905 6.9908,-1.41179 0.158,-0.0889 23.5079,-32.12219 -7.2964,-66.0423 -18.709,-26.56655 -64.5456,-57.62331 c 0,0 -62.3004,15.90249 -63.0489,16.27669 -0.7482,0.3742 -32.7406,16.65089 -36.4823,20.76685 -3.7417,4.11597 -28.0633,24.69571 -28.0633,24.69571 0,0 -14.5928,35.54685 -14.5928,36.66937 0,1.12252 8.2319,124.78816 8.2319,124.78816 l 53.3202,36.10811 c 0,0 78.0161,6.17392 79.1385,6.17392 1.1226,0 27.6891,-6.92232 27.6891,-8.41901 0,-1.4967 -3.5546,-24.88277 -3.5546,-24.88277 l -0.1871,-11.22532 -16.2766,-1.12257 -14.7802,4.49016 -21.5151,0.18709 -21.3281,-3.18053 -12.7222,-7.29644 -13.2831,-11.03826 -14.9673,-12.5349 c 0,0 -5.6126,-10.85117 -6.5479,-12.16078 -0.9355,-1.30963 -4.4902,-14.78002 -4.4902,-14.78002 l -1.4968,-10.47697 -0.7482,-32.92758 4.677,-13.47039 6.1741,-12.72201 13.0961,-13.2833 8.7931,-9.35445 20.7669,-9.35445 3.5547,-5.42555 -0.9639,-2.86104 -12.0054,-12.99353 13.9049,-14.82799 42.282,0.74837 z"
         id="path4617-6" />
    </clipPath>
    <clipPath
       clipPathUnits="userSpaceOnUse"
       id="clipPath1301-2">
      <path
         style="fill:#d5320c;stroke:#661100;stroke-width:0;stroke-dasharray:none"
         d="m 2730.7461,571.36879 19.2338,5.58821 -2.9569,17.61078 -22.6378,5.23848 -29.373,2.99342 -16.8381,-2.61924 -3.9287,-11.5995 -18.709,-17.21215 3.9291,-11.7866 14.5928,-2.80633 17.5863,1.30963 9.5414,12.34784 z"
         id="path1303-8" />
    </clipPath>
    <clipPath
       clipPathUnits="userSpaceOnUse"
       id="clipPath10898-4">
      <rect
         style="fill:#10c287;fill-opacity:1;stroke:none;stroke-width:24.5028;stroke-dasharray:none;stroke-opacity:1"
         id="rect10900-5"
         width="127.93327"
         height="121.38268"
         x="100.99586"
         y="431.6091"
         transform="scale(-1,1)" />
    </clipPath>
    <clipPath
       clipPathUnits="userSpaceOnUse"
       id="clipPath10863-2">
      <rect
         style="fill:#10c287;fill-opacity:1;stroke:none;stroke-width:17.3954;stroke-dasharray:none;stroke-opacity:1"
         id="rect10865-5"
         width="127.93327"
         height="61.178131"
         x="-854.83447"
         y="462.41409"
         transform="scale(-1,1)" />
    </clipPath>
    <inkscape:path-effect
       effect="fillet_chamfer"
       id="path-effect14258"
       is_visible="true"
       lpeversion="1"
       nodesatellites_param="F,1,0,1,0,0.15,0,10 @ F,1,0,1,0,0.33525905,0,10 @ F,1,0,1,0,0.20703027,0,10 @ F,1,0,1,0,0.55422033,0,10"
       unit="px"
       method="bezier"
       mode="F"
       radius="15"
       chamfer_steps="10"
       flexible="true"
       use_knot_distance="true"
       apply_no_radius="true"
       apply_with_radius="true"
       only_selected="false"
       hide_knots="false" />
    <clipPath
       clipPathUnits="userSpaceOnUse"
       id="clipPath10898-4-7">
      <rect
         style="fill:#10c287;fill-opacity:1;stroke:none;stroke-width:24.5028;stroke-dasharray:none;stroke-opacity:1"
         id="rect10900-5-8"
         width="127.93327"
         height="121.38268"
         x="100.99586"
         y="431.6091"
         transform="scale(-1,1)" />
    </clipPath>
    <clipPath
       clipPathUnits="userSpaceOnUse"
       id="clipPath10863-2-6">
      <rect
         style="fill:#10c287;fill-opacity:1;stroke:none;stroke-width:17.3954;stroke-dasharray:none;stroke-opacity:1"
         id="rect10865-5-8"
         width="127.93327"
         height="61.178131"
         x="-854.83447"
         y="462.41409"
         transform="scale(-1,1)" />
    </clipPath>
    <inkscape:path-effect
       effect="fillet_chamfer"
       id="path-effect14258-8"
       is_visible="true"
       lpeversion="1"
       nodesatellites_param="F,1,0,1,0,0.15,0,10 @ F,1,0,1,0,0.33525905,0,10 @ F,1,0,1,0,0.20703027,0,10 @ F,1,0,1,0,0.55422033,0,10"
       unit="px"
       method="bezier"
       mode="F"
       radius="15"
       chamfer_steps="10"
       flexible="true"
       use_knot_distance="true"
       apply_no_radius="true"
       apply_with_radius="true"
       only_selected="false"
       hide_knots="false" />
  </defs>
  <g
     inkscape:label="Layer 1"
     inkscape:groupmode="layer"
     id="layer1"
     transform="translate(-319.51326,49.69978)">
    <g
       aria-label="dor thm"
       id="text2590-7"
       style="font-size:211.667px;font-family:'SF Pro Display';-inkscape-font-specification:'SF Pro Display, Normal';fill:#011645;stroke:#011645;stroke-width:2">
      <path
         d="M 671.95053,88.54245 V 43.437564 a 9.5895506,9.5895506 135 0 1 9.58955,-9.589551 9.4496337,9.4496337 45.134594 0 1 9.42741,9.471806 l 0,141.775421 a 9.5700859,9.5700859 135 0 1 -9.57009,9.57009 h -0.0467 a 9.4001799,9.4001799 45 0 1 -9.40018,-9.40018 v -0.0256 c 0,-4.38376 -1.71899,-4.78913 -4.52334,-1.42656 -1.31565,1.57754 -2.71379,3.01937 -4.1944,4.3255 -3.2808,2.89418 -9.60517,6.33837 -13.80069,7.58062 -2.11069,0.62496 -4.33441,1.09919 -6.67118,1.4227 -4.33892,0.60069 -11.4985,0.60731 -15.81664,-0.11836 -7.94411,-1.335 -14.92,-4.76137 -20.92767,-10.2791 -3.22523,-2.9622 -7.62909,-8.605 -9.80239,-12.40764 -4.73579,-8.28625 -7.53885,-18.12477 -8.40917,-29.51557 -0.3339,-4.36996 -0.3339,-11.4903 0,-15.86026 0.87032,-11.3908 3.67338,-21.22931 8.40917,-29.515559 2.1733,-3.802642 6.57716,-9.445439 9.80239,-12.407643 6.00767,-5.517727 12.98356,-8.944094 20.92767,-10.279101 4.31814,-0.725663 11.4786,-0.720502 15.81568,-0.107639 2.34583,0.331484 4.57773,0.818019 6.69573,1.459607 4.18746,1.268475 10.51315,4.714506 13.80397,7.596654 1.46828,1.285945 2.85534,2.708138 4.16117,4.266579 2.81201,3.355986 4.5297,2.952462 4.5297,-1.431298 z m -64.46851,56.27645 c 0.61022,6.9258 2.05698,12.97473 4.34028,18.1468 1.76733,4.00329 5.93095,9.90727 9.32367,12.66413 3.08106,2.5036 6.57649,4.23861 10.48629,5.20502 4.24525,1.04933 11.48559,1.04933 15.73084,0 3.9098,-0.96641 7.40523,-2.70142 10.48629,-5.20502 3.39272,-2.75686 7.57384,-8.64832 9.36111,-12.64268 2.31638,-5.17685 3.78378,-11.23301 4.40219,-18.16848 0.38921,-4.365 0.38949,-11.49042 -3.6e-4,-15.85536 -0.61714,-6.90988 -2.07889,-12.93494 -4.38525,-18.07516 -1.7913,-3.9923 -5.97189,-9.88372 -9.34931,-12.659533 -3.08829,-2.538171 -6.59358,-4.29613 -10.51588,-5.273877 -4.24299,-1.057689 -11.48543,-1.057689 -15.72842,0 -3.9223,0.977748 -7.42759,2.735707 -10.51588,5.273877 -3.37742,2.775813 -7.54049,8.679873 -9.31177,12.681153 -2.27335,5.13544 -3.7145,11.15321 -4.32345,18.05331 -0.38525,4.36538 -0.38498,11.49038 -3.5e-4,15.85582 z"
         id="path11808"
         inkscape:path-effect="#path-effect13324"
         inkscape:original-d="M 671.95053,96.47995 V 33.848013 h 19.01696 V 194.66533 h -19.01696 v -17.36331 q -5.99447,10.3353 -15.19289,15.3996 -9.09507,4.96095 -21.91084,4.96095 -20.98067,0 -34.20986,-16.74319 -13.12583,-16.7432 -13.12583,-44.0284 0,-27.2852 13.12583,-44.028387 13.22919,-16.743191 34.20986,-16.743191 12.81577,0 21.91084,5.064299 9.19842,4.960945 15.19289,15.296249 z m -64.80235,40.41103 q 0,20.98067 8.5783,32.96962 8.68166,11.8856 23.7712,11.8856 15.08954,0 23.7712,-11.8856 8.68165,-11.98895 8.68165,-32.96962 0,-20.98066 -8.68165,-32.86626 -8.68166,-11.988951 -23.7712,-11.988951 -15.08954,0 -23.7712,11.988951 -8.5783,11.8856 -8.5783,32.86626 z"
         inkscape:export-filename="logo.png"
         inkscape:export-xdpi="96"
         inkscape:export-ydpi="96" />
      <path
         d="m 762.8226,92.242475 q -15.29625,0 -24.18461,11.988955 -8.88836,11.8856 -8.88836,32.65955 0,20.77396 8.78501,32.76292 8.88836,11.88559 24.28796,11.88559 15.1929,0 24.08126,-11.98895 8.88836,-11.98895 8.88836,-32.65956 0,-20.56725 -8.88836,-32.5562 Q 778.0155,92.242475 762.8226,92.242475 Z m 0,-16.123073 q 24.80473,0 38.9641,16.123073 14.15936,16.123075 14.15936,44.648505 0,28.42209 -14.15936,44.64851 -14.15937,16.12308 -38.9641,16.12308 -24.90808,0 -39.06744,-16.12308 -14.05602,-16.22642 -14.05602,-44.64851 0,-28.52543 14.05602,-44.648505 14.15936,-16.123073 39.06744,-16.123073 z"
         id="path11810" />
      <path
         d="m 892.70008,93.999477 c -8.0322,-1.039397 -12.66432,0.976882 -18.00743,3.501284 -2.63358,1.244253 -4.47499,2.189776 -5.86567,3.032229 -5.01701,3.0392 -10.83036,11.0749 -13.76242,16.19711 -1.48569,2.59544 -2.64912,5.48203 -3.33304,9.06098 -0.82158,4.29929 -0.68271,11.4497 -0.68271,15.83346 v 43.33114 a 9.7096486,9.7096486 135 0 1 -9.70965,9.70965 h -0.0949 a 9.3157643,9.3157643 45 0 1 -9.31576,-9.31576 V 88.906893 a 9.9969592,9.9969592 135 0 1 9.99696,-9.996959 9.139414,9.139414 45.100614 0 1 9.12335,9.155449 v 0.890479 c 0,4.38376 1.69113,4.770866 4.49153,1.405617 1.41532,-1.700793 2.93479,-3.243878 4.55841,-4.629254 3.32793,-2.839613 9.69506,-6.19561 13.88541,-7.458026 2.54034,-0.76532 5.24378,-1.326777 8.1103,-1.684368 4.34725,-0.542309 9.87595,-0.471236 12.25927,-0.160369 2.92736,0.254554 5.2898,4.277161 5.313,8.66086 l 0,0 c 0.0339,6.404479 -2.90496,9.787365 -6.96665,8.909155 z"
         id="path11812"
         inkscape:path-effect="#path-effect13326"
         inkscape:original-d="m 899.72809,96.686656 c -2.13597,-1.240237 -4.47864,-2.135963 -7.02801,-2.687179 -2.48047,-0.620118 -5.50075,-2.167968 -8.26824,-0.930177 -19.70404,8.81284 -17.2495,8.02268 -23.03727,15.05069 -5.71887,6.9591 -10.34576,12.47566 -10.34576,25.56705 v 60.97829 H 831.9285 V 78.909934 h 19.12031 v 17.983428 c 3.99632,-7.028006 9.19842,-12.230109 15.60631,-15.606308 6.40789,-3.445101 14.19381,-5.167652 23.35778,-5.167652 1.30914,0 2.75608,0.103353 4.34083,0.31006 1.58475,0.137804 3.34175,0.378961 5.271,0.723471 z"
         sodipodi:nodetypes="ccscsccccccsccc" />
      <path
         d="m 982.28162,55.676592 v 17.974622 a 5.2587203,5.2587203 45 0 0 5.25872,5.25872 h 25.97356 a 7.9375,7.9375 45 0 1 7.9375,7.9375 7.4100152,7.4100152 139.23925 0 1 -7.9375,6.841984 h -26.11598 a 5.1163041,5.1163041 135 0 0 -5.1163,5.116304 v 49.784838 c 0,4.38376 -0.0987,11.50664 0.38042,15.86199 0.11913,1.08292 0.26622,2.09174 0.44129,3.02646 0.79682,4.25428 5.86507,9.67033 10.09918,10.53171 0.26386,0.0537 0.5335,0.10443 0.80893,0.15225 4.31393,0.74908 11.45996,0.58599 15.84376,0.58599 l 3.6587,0 a 7.9375,7.9375 45 0 1 7.9375,7.9375 v 0.0414 a 7.9375,7.9375 135 0 1 -7.9375,7.9375 h -3.6587 c -4.3838,0 -11.4988,0.0527 -15.86722,-0.29934 -6.39421,-0.51526 -11.67703,-1.6957 -15.84847,-3.54131 -3.98767,-1.7643 -9.22351,-6.89143 -11.04342,-10.85333 -1.87921,-4.09101 -3.0852,-9.2625 -3.61796,-15.51448 -0.3721,-4.36662 -0.3162,-11.48255 -0.3162,-15.86631 V 97.913107 a 4.2236893,4.2236893 45 0 0 -4.22369,-4.223689 l -1.79147,0 a 7.9375,7.9375 45 0 1 -7.9375,-7.9375 7.4100152,7.4100152 139.23925 0 1 7.9375,-6.841984 h 1.24706 a 4.7680978,4.7680978 135 0 0 4.7681,-4.768098 V 55.676592 a 9.6329222,9.6329222 135 0 1 9.63292,-9.632922 9.5601243,9.5601243 45.437971 0 1 9.48677,9.632922 z"
         id="path11814"
         inkscape:path-effect="#path-effect13328"
         inkscape:original-d="m 982.28162,46.04367 v 32.866264 h 39.16978 v 14.779484 h -39.16978 v 62.838642 q 0,14.15937 3.82389,18.19013 3.92716,4.03077 15.81219,4.03077 h 19.5337 v 15.91637 h -19.5337 q -22.01306,0 -30.38418,-8.16489 -8.37159,-8.26824 -8.37159,-29.97238 V 93.689418 H 949.20927 V 78.909934 h 13.95266 V 46.04367 Z" />
      <path
         d="m 1134.7466,132.73618 v 52.16047 a 9.7686817,9.7686817 135 0 1 -9.7687,9.76868 9.4164648,9.4164648 46.014188 0 1 -9.2483,-9.58166 v -50.08321 c 0,-5.2918 0.127,-13.90217 -0.6387,-19.13362 -0.4378,-2.99162 -1.1007,-5.69277 -1.9888,-8.10345 -1.5092,-4.09675 -5.963,-9.953332 -9.7653,-12.076089 -1.6307,-0.91043 -3.4224,-1.615786 -5.375,-2.116069 -4.2355,-1.085173 -11.4602,-1.030899 -15.7555,-0.189677 -3.8334,0.750744 -7.2804,2.084005 -10.3412,3.999782 -3.704,2.318416 -8.5492,7.718083 -10.5714,11.594103 -1.8917,3.62581 -3.1695,7.74414 -3.8334,12.35498 -0.6243,4.33532 -0.5386,11.46618 -0.5386,15.84994 V 184.62 a 10.045327,10.045327 135 0 1 -10.0453,10.04533 9.3317566,9.3317566 46.555691 0 1 -9.075,-9.58166 V 43.552866 a 9.7048532,9.7048532 135 0 1 9.7049,-9.704853 h 0.013 a 9.4024123,9.4024123 45 0 1 9.4024,9.402412 v 45.705437 c 0,4.38376 1.891,4.901676 4.7755,1.605369 1.5148,-1.731112 3.1003,-3.305495 4.7565,-4.723151 3.325,-2.846072 9.596,-6.360098 13.7706,-7.673161 1.9905,-0.62609 4.0587,-1.108455 6.2044,-1.447096 4.3258,-0.682685 11.4841,-0.683893 15.819,-0.05687 6.4508,0.933084 11.9572,3.071943 16.5189,6.416576 3.5262,2.585359 8.0963,8.174937 10.094,12.067115 3.031,5.905359 4.8914,13.146869 5.5812,21.724519 0.3513,4.36849 0.3048,11.48326 0.3048,15.86702 z"
         id="path11816"
         inkscape:path-effect="#path-effect13330"
         inkscape:original-d="m 1134.7466,124.79868 v 69.86665 h -19.017 V 125.4188 q 0,-16.43313 -6.4079,-24.59802 -6.4079,-8.164893 -19.2236,-8.164893 -15.3996,0 -24.288,9.818543 -8.8884,9.81853 -8.8884,26.76843 v 65.42247 h -19.1203 V 33.848013 h 19.1203 v 63.045349 q 6.8213,-10.438656 16.0197,-15.606308 9.3018,-5.167652 21.3941,-5.167652 19.9472,0 30.1791,12.402364 10.232,12.299014 10.232,36.276914 z" />
      <path
         d="m 1248.4182,93.159216 c 1.4069,-1.830884 2.8772,-3.509186 4.4108,-5.034904 3.721,-3.701751 11.0878,-8.260733 16.0872,-9.855465 1.6886,-0.538638 3.4355,-0.976042 5.2408,-1.312211 5.1643,-0.961668 13.8066,-0.998518 18.9284,0.153436 4.352,0.978812 8.2323,2.682945 11.6408,5.1124 4.2682,3.042233 9.5273,9.985693 11.6593,14.780574 2.316,5.208874 3.8226,11.303944 4.5197,18.285204 0.5224,5.23233 0.4502,13.77492 0.4502,19.03543 v 50.81665 a 9.525,9.525 135 0 1 -9.525,9.525 h -0.07 a 9.525,9.525 45 0 1 -9.525,-9.525 V 134.9438 c 0,-5.26051 0.1144,-13.81398 -0.5673,-19.02642 -0.3128,-2.3914 -0.7549,-4.59448 -1.3263,-6.60924 -1.4279,-5.03447 -6.5522,-12.394695 -11.2803,-14.564912 -0.4388,-0.201422 -0.8888,-0.388267 -1.3501,-0.560534 -4.9018,-1.830746 -13.7091,-1.719209 -18.7774,-0.366937 -2.3599,0.629646 -4.5579,1.515649 -6.594,2.658009 -4.5653,2.561369 -10.2921,9.225484 -12.412,14.017964 -1.2447,2.81376 -2.1577,5.90324 -2.739,9.26846 -0.8944,5.17743 -0.7642,13.74716 -0.7642,19.00767 l 0,46.37247 a 9.525,9.525 135 0 1 -9.525,9.525 h -0.07 a 9.525,9.525 45 0 1 -9.525,-9.525 V 134.9438 c 0,-5.26051 0.1142,-13.8136 -0.5616,-19.02688 -0.3109,-2.39799 -0.7509,-4.60353 -1.3199,-6.61661 -1.423,-5.0347 -6.5727,-12.380489 -11.305,-14.540123 -0.4967,-0.226641 -1.0079,-0.434974 -1.5336,-0.624999 -4.9225,-1.779245 -13.7261,-1.675182 -18.7808,-0.2769 -2.2985,0.635845 -4.4447,1.523871 -6.4385,2.66408 -4.5446,2.598898 -10.2491,9.279002 -12.3728,14.069932 -1.2358,2.78803 -2.1443,5.84432 -2.7253,9.16888 -0.9044,5.17553 -0.7731,13.74617 -0.7731,19.00668 v 46.37247 a 9.525,9.525 135 0 1 -9.525,9.525 l -0.07,0 a 9.525,9.525 45 0 1 -9.525,-9.525 V 88.434934 a 9.525,9.525 135 0 1 9.525,-9.525 h 0.07 a 9.525,9.525 45 0 1 9.525,9.525 c 0,4.671541 2.1381,4.713501 5.6488,0.805705 0.7561,-0.841693 1.5317,-1.641391 2.3268,-2.399094 3.7979,-3.619481 11.3814,-7.840158 16.455,-9.176567 1.0736,-0.282784 2.1733,-0.526764 3.2992,-0.731939 5.1682,-0.941867 13.812,-0.97373 18.927,0.205704 1.2096,0.278906 2.385,0.615048 3.5263,1.008424 4.9547,1.707838 12.0224,6.844541 15.2269,10.993159 0.8198,1.061283 1.59,2.184192 2.3107,3.368727 2.7293,4.485576 6.0015,4.817635 9.2039,0.650163 z"
         id="path11818"
         inkscape:path-effect="#path-effect13332"
         inkscape:original-d="m 1243.2206,101.13084 q 7.1313,-12.81578 17.0532,-18.913609 9.9219,-6.097829 23.3578,-6.097829 18.0868,0 27.9053,12.712423 9.8185,12.609075 9.8185,35.966855 v 69.86665 h -19.1203 V 125.4188 q 0,-16.63984 -5.8911,-24.70138 -5.8911,-8.061533 -17.9834,-8.061533 -14.7795,0 -23.3578,9.818543 -8.5783,9.81853 -8.5783,26.76843 v 65.42247 h -19.1203 V 125.4188 q 0,-16.74319 -5.8911,-24.70138 -5.8912,-8.061533 -18.1902,-8.061533 -14.5727,0 -23.151,9.921893 -8.5783,9.81854 -8.5783,26.66508 v 65.42247 h -19.1204 V 78.909934 h 19.1204 v 17.983428 q 6.5112,-10.645363 15.6063,-15.709661 9.095,-5.064299 21.6007,-5.064299 12.6091,0 21.3941,6.407888 8.8884,6.407888 13.1259,18.60355 z" />
    </g>
    <rect
       style="fill:#011645;fill-opacity:1;stroke:#011645;stroke-width:2;stroke-dasharray:none;stroke-opacity:1"
       id="rect4671"
       width="19.831398"
       height="115.80788"
       x="913.32672"
       y="79.002197"
       ry="9.915699" />
    <circle
       style="fill:#10c287;fill-opacity:1;stroke:none;stroke-width:11.4386;stroke-dasharray:none;stroke-opacity:1"
       id="path4725"
       cx="923.24225"
       cy="56.166172"
       r="9.9154997" />
    <path
       d="m 485.78022,121.85582 c 0,26.02917 -21.10121,47.13037 -47.13038,47.13037 -26.03014,0 -47.13134,-21.1012 -47.13134,-47.13037 0,-26.030143 21.1012,-47.131343 47.13134,-47.131343 26.02917,0 47.13038,21.1012 47.13038,47.131343 z m 0,0 v 15.71012 c 0,17.35361 14.06787,31.42025 31.42146,31.42025 11.14629,0 20.93869,-5.80407 26.5155,-14.55663 3.1061,-4.87176 4.90475,-10.65752 4.90475,-16.86362 v -15.71012 c 0,-60.735863 -49.23572,-109.972093 -109.97209,-109.972093 -60.73586,0 -109.97208,49.23623 -109.97208,109.972093 0,60.73636 49.23622,109.97209 109.97208,109.97209 23.3654,0 45.02869,-7.28626 62.84172,-19.71189"
       stroke="#000000"
       stroke-width="18.3287"
       stroke-linecap="round"
       stroke-linejoin="round"
       id="path7611-7"
       style="fill:#000000;fill-opacity:0;stroke:#011645;stroke-width:18.329;stroke-dasharray:none;stroke-opacity:1" />
    <path
       d="m -114.50975,487.62354 c 0,26.02917 -21.10121,47.13037 -47.13038,47.13037 -26.03014,0 -47.13134,-21.1012 -47.13134,-47.13037 0,-26.03014 21.1012,-47.13134 47.13134,-47.13134 26.02917,0 47.13038,21.1012 47.13038,47.13134 z m 0,0 v 15.71012 c 0,17.35361 14.06787,31.42025 31.42146,31.42025 11.14629,0 20.93869,-5.80407 26.5155,-14.55663 3.1061,-4.87176 4.90475,-10.65752 4.90475,-16.86362 v -15.71012 c 0,-60.73586 -49.23572,-109.97209 -109.97209,-109.97209 -60.73586,0 -109.97208,49.23623 -109.97208,109.97209 0,60.73636 49.23622,109.97209 109.97208,109.97209 23.3654,0 45.02869,-7.28626 62.84172,-19.71189"
       stroke="#000000"
       stroke-width="18.3287"
       stroke-linecap="round"
       stroke-linejoin="round"
       id="path7611"
       style="fill:#000000;fill-opacity:0;stroke:#10c287;stroke-opacity:1"
       clip-path="url(#clipPath10898-4)"
       transform="translate(600.29157,-365.71243)" />
    <path
       d="m 730.96756,459.59793 c 0,26.02917 -21.10121,47.13037 -47.13038,47.13037 -26.03014,0 -47.13134,-21.1012 -47.13134,-47.13037 0,-26.03014 21.1012,-47.13134 47.13134,-47.13134 26.02917,0 47.13038,21.1012 47.13038,47.13134 z m 0,0 v 15.71012 c 0,17.35361 14.06787,31.42025 31.42146,31.42025 11.14629,0 20.93869,-5.80407 26.5155,-14.55663 3.1061,-4.87176 4.90475,-10.65752 4.90475,-16.86362 v -15.71012 c 0,-60.73586 -49.23572,-109.97209 -109.97209,-109.97209 -60.73586,0 -109.97208,49.23623 -109.97208,109.97209 0,60.73636 49.23622,109.97209 109.97208,109.97209 23.3654,0 45.02869,-7.28626 62.84172,-19.71189"
       stroke="#000000"
       stroke-width="18.3287"
       stroke-linecap="round"
       stroke-linejoin="round"
       id="path7611-6"
       style="fill:#000000;fill-opacity:0;stroke:#10c287;stroke-opacity:1"
       clip-path="url(#clipPath10863-2)"
       transform="translate(-245.21403,-337.73687)" />
    <circle
       style="fill:#10c287;fill-opacity:1;stroke:none;stroke-width:0.779281;stroke-opacity:1"
       id="path11036"
       cx="548.60419"
       cy="125.31841"
       r="9.1645002" />
    <rect
       style="fill:#10c287;fill-opacity:1;stroke:none;stroke-width:11.8646;stroke-dasharray:none;stroke-opacity:1"
       id="rect1388-3-8-3-7-0"
       width="17.9247"
       height="203.12468"
       x="-494.83588"
       y="-49.69978"
       transform="scale(-1,1)"
       ry="8.9623499" />
    <path
       style="fill:#10c287;fill-opacity:1;stroke:none;stroke-width:18.329;stroke-dasharray:none;stroke-opacity:1"
       d="m 453.90021,3.6872133 c 17.15488,2.2059572 45.68965,9.6603157 70.94716,36.0432317 2.90335,3.032721 4.0842,8.891366 2.83637,12.900707 l -0.0287,0.09217 c -2.45832,7.89869 -8.02941,8.573284 -13.54774,2.422656 -12.88907,-14.36593 -34.24308,-30.038949 -63.73625,-33.43533 -5.77393,-0.664916 -9.10235,-5.164937 -7.37488,-10.717024 l 0.0125,-0.04026 c 1.38255,-4.4435121 6.27688,-7.8595516 10.8915,-7.2661537 z"
       id="path13530"
       sodipodi:nodetypes="ccccc"
       inkscape:path-effect="#path-effect14258"
       inkscape:original-d="m 445.51204,2.9076767 c 15.50999,0.89659 53.34262,6.00814 84.4311,42.4639203 l -6.73928,21.65357 c -11.15493,-17.51202 -39.2354,-45.42796 -83.33554,-45.9786 z" />
  </g>
</svg>
