<?xml version="1.0" encoding="UTF-8" standalone="no"?>
<!-- Created with Inkscape (http://www.inkscape.org/) -->

<svg
   width="110mm"
   height="77.482269mm"
   viewBox="0 0 109.99999 77.482272"
   version="1.1"
   id="svg836"
   inkscape:version="1.2.2 (b0a8486541, 2022-12-01)"
   sodipodi:docname="m.svg"
   xmlns:inkscape="http://www.inkscape.org/namespaces/inkscape"
   xmlns:sodipodi="http://sodipodi.sourceforge.net/DTD/sodipodi-0.dtd"
   xmlns="http://www.w3.org/2000/svg"
   xmlns:svg="http://www.w3.org/2000/svg">
  <sodipodi:namedview
     id="namedview838"
     pagecolor="#505050"
     bordercolor="#eeeeee"
     borderopacity="1"
     inkscape:showpageshadow="0"
     inkscape:pageopacity="0"
     inkscape:pagecheckerboard="0"
     inkscape:deskcolor="#505050"
     inkscape:document-units="mm"
     showgrid="false"
     inkscape:zoom="2.209788"
     inkscape:cx="232.14897"
     inkscape:cy="132.5919"
     inkscape:window-width="2560"
     inkscape:window-height="1015"
     inkscape:window-x="0"
     inkscape:window-y="0"
     inkscape:window-maximized="1"
     inkscape:current-layer="layer1" />
  <defs
     id="defs833">
    <inkscape:path-effect
       effect="fillet_chamfer"
       id="path-effect13332"
       is_visible="true"
       lpeversion="1"
       nodesatellites_param="F,0,0,1,0,9.525,0,1 @ F,0,0,1,0,9.525,0,1 @ F,0,0,1,0,9.525,0,1 @ F,0,0,1,0,9.525,0,1 @ F,0,0,1,0,9.525,0,1 @ F,0,0,1,0,9.525,0,1 @ F,0,0,1,0,9.525,0,1 @ F,0,0,1,0,9.525,0,1 @ F,0,0,1,0,9.525,0,1 @ F,0,0,1,0,9.525,0,1 @ F,0,0,1,0,9.525,0,1 @ F,0,0,1,0,9.525,0,1 @ F,0,0,1,0,9.525,0,1 @ F,0,0,1,0,9.525,0,1 @ F,0,0,1,0,9.525,0,1 @ F,0,0,1,0,9.525,0,1 @ F,0,0,1,0,9.525,0,1 @ F,0,0,1,0,9.525,0,1 @ F,0,0,1,0,9.525,0,1 @ F,0,0,1,0,9.525,0,1 @ F,0,0,1,0,9.525,0,1 @ F,0,0,1,0,9.525,0,1 @ F,0,0,1,0,9.525,0,1 @ F,0,0,1,0,9.525,0,1 @ F,0,0,1,0,9.525,0,1 @ F,0,0,1,0,9.525,0,1 @ F,0,0,1,0,9.525,0,1"
       unit="px"
       method="auto"
       mode="F"
       radius="36"
       chamfer_steps="1"
       flexible="false"
       use_knot_distance="true"
       apply_no_radius="true"
       apply_with_radius="true"
       only_selected="false"
       hide_knots="false" />
    <inkscape:path-effect
       effect="fillet_chamfer"
       id="path-effect13330"
       is_visible="true"
       lpeversion="1"
       nodesatellites_param="F,0,0,1,0,7.9375,0,1 @ F,0,0,1,0,9.7686817,0,1 @ F,0,1,1,0,9.581661,0,1 @ F,0,1,1,0,9.581661,0,1 @ F,0,0,1,0,7.9375,0,1 @ F,0,0,1,0,7.9375,0,1 @ F,0,0,1,0,7.9375,0,1 @ F,0,0,1,0,7.9375,0,1 @ F,0,0,1,0,10.045327,0,1 @ F,0,0,1,0,9.581661,0,1 @ F,0,0,1,0,9.7048532,0,1 @ F,0,0,1,0,9.4024123,0,1 @ F,0,0,1,0,7.9375,0,1 @ F,0,0,1,0,7.9375,0,1 @ F,0,0,1,0,7.9375,0,1 @ F,0,0,1,0,7.9375,0,1"
       unit="px"
       method="auto"
       mode="F"
       radius="30"
       chamfer_steps="1"
       flexible="false"
       use_knot_distance="true"
       apply_no_radius="true"
       apply_with_radius="true"
       only_selected="false"
       hide_knots="false" />
    <inkscape:path-effect
       effect="fillet_chamfer"
       id="path-effect13328"
       is_visible="true"
       lpeversion="1"
       nodesatellites_param="F,0,0,1,0,9.6329222,0,1 @ F,0,0,1,0,5.2587203,0,1 @ F,0,0,1,0,7.9375,0,1 @ F,0,0,1,0,7.9375,0,1 @ F,0,0,1,0,5.1163041,0,1 @ F,0,0,1,0,7.9375,0,1 @ F,0,0,1,0,7.9375,0,1 @ F,0,0,1,0,7.9375,0,1 @ F,0,0,1,0,7.9375,0,1 @ F,0,0,1,0,7.9375,0,1 @ F,0,0,1,0,7.9375,0,1 @ F,0,0,1,0,7.9375,0,1 @ F,0,0,1,0,7.9375,0,1 @ F,0,0,1,0,4.2236893,0,1 @ F,0,0,1,0,7.9375,0,1 @ F,0,0,1,0,7.9375,0,1 @ F,0,0,1,0,4.7680978,0,1 @ F,0,0,1,0,9.6329222,0,1"
       unit="px"
       method="auto"
       mode="F"
       radius="30"
       chamfer_steps="1"
       flexible="false"
       use_knot_distance="true"
       apply_no_radius="true"
       apply_with_radius="true"
       only_selected="false"
       hide_knots="false" />
    <inkscape:path-effect
       effect="fillet_chamfer"
       id="path-effect13326"
       is_visible="true"
       lpeversion="1"
       nodesatellites_param="F,0,0,1,0,11.596496,0,1 @ F,0,0,1,0,7.9375,0,1 @ F,0,0,1,0,10.700164,0,1 @ F,0,0,1,0,10.700164,0,1 @ F,0,0,1,0,7.9375,0,1 @ F,0,0,1,0,9.7096486,0,1 @ F,0,0,1,0,9.3157643,0,1 @ F,0,0,1,0,9.9969592,0,1 @ F,0,0,1,0,9.1554491,0,1 @ F,0,0,1,0,7.9375,0,1 @ F,0,0,1,0,7.9375,0,1 @ F,0,0,1,0,7.9375,0,1 @ F,0,0,1,0,0,0,1 @ F,0,0,1,0,7.9375,0,1"
       unit="px"
       method="auto"
       mode="F"
       radius="30"
       chamfer_steps="1"
       flexible="false"
       use_knot_distance="true"
       apply_no_radius="true"
       apply_with_radius="true"
       only_selected="false"
       hide_knots="false" />
    <inkscape:path-effect
       effect="fillet_chamfer"
       id="path-effect13324"
       is_visible="true"
       lpeversion="1"
       nodesatellites_param="F,0,0,1,0,7.9375,0,1 @ F,0,0,1,0,9.5895506,0,1 @ F,0,0,1,0,9.4718058,0,1 @ F,0,0,1,0,9.5700859,0,1 @ F,0,0,1,0,9.4001799,0,1 @ F,0,0,1,0,7.9375,0,1 @ F,0,0,1,0,7.9375,0,1 @ F,0,0,1,0,7.9375,0,1 @ F,0,0,1,0,7.9375,0,1 @ F,0,0,1,0,7.9375,0,1 @ F,0,0,1,0,7.9375,0,1 @ F,0,0,1,0,7.9375,0,1 @ F,0,0,1,0,7.9375,0,1 | F,0,0,1,0,7.9375,0,1 @ F,0,0,1,0,7.9375,0,1 @ F,0,0,1,0,7.9375,0,1 @ F,0,0,1,0,7.9375,0,1 @ F,0,0,1,0,7.9375,0,1 @ F,0,0,1,0,7.9375,0,1 @ F,0,0,1,0,7.9375,0,1 @ F,0,0,1,0,7.9375,0,1"
       unit="px"
       method="auto"
       mode="F"
       radius="30"
       chamfer_steps="1"
       flexible="false"
       use_knot_distance="true"
       apply_no_radius="true"
       apply_with_radius="true"
       only_selected="false"
       hide_knots="false" />
    <inkscape:path-effect
       effect="clone_original"
       linkeditem=""
       id="path-effect11821"
       is_visible="true"
       lpeversion="1"
       method="d"
       attributes=""
       css_properties=""
       allow_transforms="true" />
    <clipPath
       clipPathUnits="userSpaceOnUse"
       id="clipPath1301">
      <path
         style="fill:#d5320c;stroke:#661100;stroke-width:0;stroke-dasharray:none"
         d="m 2730.7461,571.36879 19.2338,5.58821 -2.9569,17.61078 -22.6378,5.23848 -29.373,2.99342 -16.8381,-2.61924 -3.9287,-11.5995 -18.709,-17.21215 3.9291,-11.7866 14.5928,-2.80633 17.5863,1.30963 9.5414,12.34784 z"
         id="path1303" />
    </clipPath>
    <clipPath
       clipPathUnits="userSpaceOnUse"
       id="clipPath4615">
      <path
         style="fill:#10c287;fill-opacity:1;stroke:none;stroke-width:15;stroke-dasharray:none;stroke-opacity:1"
         d="m 2707.5204,436.34442 0.1871,1.23947 9.5181,26.28596 13.4112,24.09174 4.7625,17.19791 3.175,18.78542 c 0,0 0.2646,13.22917 0.2646,14.2875 0,1.05831 -3.9688,20.6375 -3.9688,20.6375 l -0.7318,14.52314 0.7236,1.34048 6.7345,2.52905 6.9908,-1.41179 0.158,-0.0889 23.5079,-32.12219 -7.2964,-66.0423 -18.709,-26.56655 -64.5456,-57.62331 c 0,0 -62.3004,15.90249 -63.0489,16.27669 -0.7482,0.3742 -32.7406,16.65089 -36.4823,20.76685 -3.7417,4.11597 -28.0633,24.69571 -28.0633,24.69571 0,0 -14.5928,35.54685 -14.5928,36.66937 0,1.12252 8.2319,124.78816 8.2319,124.78816 l 53.3202,36.10811 c 0,0 78.0161,6.17392 79.1385,6.17392 1.1226,0 27.6891,-6.92232 27.6891,-8.41901 0,-1.4967 -3.5546,-24.88277 -3.5546,-24.88277 l -0.1871,-11.22532 -16.2766,-1.12257 -14.7802,4.49016 -21.5151,0.18709 -21.3281,-3.18053 -12.7222,-7.29644 -13.2831,-11.03826 -14.9673,-12.5349 c 0,0 -5.6126,-10.85117 -6.5479,-12.16078 -0.9355,-1.30963 -4.4902,-14.78002 -4.4902,-14.78002 l -1.4968,-10.47697 -0.7482,-32.92758 4.677,-13.47039 6.1741,-12.72201 13.0961,-13.2833 8.7931,-9.35445 20.7669,-9.35445 3.5547,-5.42555 -0.9639,-2.86104 -12.0054,-12.99353 13.9049,-14.82799 42.282,0.74837 z"
         id="path4617" />
    </clipPath>
    <clipPath
       clipPathUnits="userSpaceOnUse"
       id="clipPath4615-5">
      <path
         style="fill:#10c287;fill-opacity:1;stroke:none;stroke-width:15;stroke-dasharray:none;stroke-opacity:1"
         d="m 2707.5204,436.34442 0.1871,1.23947 9.5181,26.28596 13.4112,24.09174 4.7625,17.19791 3.175,18.78542 c 0,0 0.2646,13.22917 0.2646,14.2875 0,1.05831 -3.9688,20.6375 -3.9688,20.6375 l -0.7318,14.52314 0.7236,1.34048 6.7345,2.52905 6.9908,-1.41179 0.158,-0.0889 23.5079,-32.12219 -7.2964,-66.0423 -18.709,-26.56655 -64.5456,-57.62331 c 0,0 -62.3004,15.90249 -63.0489,16.27669 -0.7482,0.3742 -32.7406,16.65089 -36.4823,20.76685 -3.7417,4.11597 -28.0633,24.69571 -28.0633,24.69571 0,0 -14.5928,35.54685 -14.5928,36.66937 0,1.12252 8.2319,124.78816 8.2319,124.78816 l 53.3202,36.10811 c 0,0 78.0161,6.17392 79.1385,6.17392 1.1226,0 27.6891,-6.92232 27.6891,-8.41901 0,-1.4967 -3.5546,-24.88277 -3.5546,-24.88277 l -0.1871,-11.22532 -16.2766,-1.12257 -14.7802,4.49016 -21.5151,0.18709 -21.3281,-3.18053 -12.7222,-7.29644 -13.2831,-11.03826 -14.9673,-12.5349 c 0,0 -5.6126,-10.85117 -6.5479,-12.16078 -0.9355,-1.30963 -4.4902,-14.78002 -4.4902,-14.78002 l -1.4968,-10.47697 -0.7482,-32.92758 4.677,-13.47039 6.1741,-12.72201 13.0961,-13.2833 8.7931,-9.35445 20.7669,-9.35445 3.5547,-5.42555 -0.9639,-2.86104 -12.0054,-12.99353 13.9049,-14.82799 42.282,0.74837 z"
         id="path4617-6" />
    </clipPath>
    <clipPath
       clipPathUnits="userSpaceOnUse"
       id="clipPath1301-2">
      <path
         style="fill:#d5320c;stroke:#661100;stroke-width:0;stroke-dasharray:none"
         d="m 2730.7461,571.36879 19.2338,5.58821 -2.9569,17.61078 -22.6378,5.23848 -29.373,2.99342 -16.8381,-2.61924 -3.9287,-11.5995 -18.709,-17.21215 3.9291,-11.7866 14.5928,-2.80633 17.5863,1.30963 9.5414,12.34784 z"
         id="path1303-8" />
    </clipPath>
    <clipPath
       clipPathUnits="userSpaceOnUse"
       id="clipPath10898-4">
      <rect
         style="fill:#10c287;fill-opacity:1;stroke:none;stroke-width:24.5028;stroke-dasharray:none;stroke-opacity:1"
         id="rect10900-5"
         width="127.93327"
         height="121.38268"
         x="100.99586"
         y="431.6091"
         transform="scale(-1,1)" />
    </clipPath>
    <clipPath
       clipPathUnits="userSpaceOnUse"
       id="clipPath10863-2">
      <rect
         style="fill:#10c287;fill-opacity:1;stroke:none;stroke-width:17.3954;stroke-dasharray:none;stroke-opacity:1"
         id="rect10865-5"
         width="127.93327"
         height="61.178131"
         x="-854.83447"
         y="462.41409"
         transform="scale(-1,1)" />
    </clipPath>
    <inkscape:path-effect
       effect="fillet_chamfer"
       id="path-effect14258"
       is_visible="true"
       lpeversion="1"
       nodesatellites_param="F,1,0,1,0,0.15,0,10 @ F,1,0,1,0,0.33525905,0,10 @ F,1,0,1,0,0.20703027,0,10 @ F,1,0,1,0,0.55422033,0,10"
       unit="px"
       method="bezier"
       mode="F"
       radius="15"
       chamfer_steps="10"
       flexible="true"
       use_knot_distance="true"
       apply_no_radius="true"
       apply_with_radius="true"
       only_selected="false"
       hide_knots="false" />
    <clipPath
       clipPathUnits="userSpaceOnUse"
       id="clipPath10898-4-7">
      <rect
         style="fill:#10c287;fill-opacity:1;stroke:none;stroke-width:24.5028;stroke-dasharray:none;stroke-opacity:1"
         id="rect10900-5-8"
         width="127.93327"
         height="121.38268"
         x="100.99586"
         y="431.6091"
         transform="scale(-1,1)" />
    </clipPath>
    <clipPath
       clipPathUnits="userSpaceOnUse"
       id="clipPath10863-2-6">
      <rect
         style="fill:#10c287;fill-opacity:1;stroke:none;stroke-width:17.3954;stroke-dasharray:none;stroke-opacity:1"
         id="rect10865-5-8"
         width="127.93327"
         height="61.178131"
         x="-854.83447"
         y="462.41409"
         transform="scale(-1,1)" />
    </clipPath>
    <inkscape:path-effect
       effect="fillet_chamfer"
       id="path-effect14258-8"
       is_visible="true"
       lpeversion="1"
       nodesatellites_param="F,1,0,1,0,0.15,0,10 @ F,1,0,1,0,0.33525905,0,10 @ F,1,0,1,0,0.20703027,0,10 @ F,1,0,1,0,0.55422033,0,10"
       unit="px"
       method="bezier"
       mode="F"
       radius="15"
       chamfer_steps="10"
       flexible="true"
       use_knot_distance="true"
       apply_no_radius="true"
       apply_with_radius="true"
       only_selected="false"
       hide_knots="false" />
  </defs>
  <g
     inkscape:label="Layer 1"
     inkscape:groupmode="layer"
     id="layer1"
     transform="translate(-1151.3742,-75.22598)">
    <g
       aria-label="dor thm"
       id="text2590-7"
       style="font-size:211.667px;font-family:'SF Pro Display';-inkscape-font-specification:'SF Pro Display, Normal';fill:#011645;stroke:#011645;stroke-width:2"
       transform="matrix(0.64333016,0,0,0.64333016,410.66045,26.830838)">
      <path
         d="m 1248.4182,93.159216 c 1.4069,-1.830884 2.8772,-3.509186 4.4108,-5.034904 3.721,-3.701751 11.0878,-8.260733 16.0872,-9.855465 1.6886,-0.538638 3.4355,-0.976042 5.2408,-1.312211 5.1643,-0.961668 13.8066,-0.998518 18.9284,0.153436 4.352,0.978812 8.2323,2.682945 11.6408,5.1124 4.2682,3.042233 9.5273,9.985693 11.6593,14.780574 2.316,5.208874 3.8226,11.303944 4.5197,18.285204 0.5224,5.23233 0.4502,13.77492 0.4502,19.03543 v 50.81665 a 9.525,9.525 135 0 1 -9.525,9.525 h -0.07 a 9.525,9.525 45 0 1 -9.525,-9.525 V 134.9438 c 0,-5.26051 0.1144,-13.81398 -0.5673,-19.02642 -0.3128,-2.3914 -0.7549,-4.59448 -1.3263,-6.60924 -1.4279,-5.03447 -6.5522,-12.394695 -11.2803,-14.564912 -0.4388,-0.201422 -0.8888,-0.388267 -1.3501,-0.560534 -4.9018,-1.830746 -13.7091,-1.719209 -18.7774,-0.366937 -2.3599,0.629646 -4.5579,1.515649 -6.594,2.658009 -4.5653,2.561369 -10.2921,9.225484 -12.412,14.017964 -1.2447,2.81376 -2.1577,5.90324 -2.739,9.26846 -0.8944,5.17743 -0.7642,13.74716 -0.7642,19.00767 l 0,46.37247 a 9.525,9.525 135 0 1 -9.525,9.525 h -0.07 a 9.525,9.525 45 0 1 -9.525,-9.525 V 134.9438 c 0,-5.26051 0.1142,-13.8136 -0.5616,-19.02688 -0.3109,-2.39799 -0.7509,-4.60353 -1.3199,-6.61661 -1.423,-5.0347 -6.5727,-12.380489 -11.305,-14.540123 -0.4967,-0.226641 -1.0079,-0.434974 -1.5336,-0.624999 -4.9225,-1.779245 -13.7261,-1.675182 -18.7808,-0.2769 -2.2985,0.635845 -4.4447,1.523871 -6.4385,2.66408 -4.5446,2.598898 -10.2491,9.279002 -12.3728,14.069932 -1.2358,2.78803 -2.1443,5.84432 -2.7253,9.16888 -0.9044,5.17553 -0.7731,13.74617 -0.7731,19.00668 v 46.37247 a 9.525,9.525 135 0 1 -9.525,9.525 l -0.07,0 a 9.525,9.525 45 0 1 -9.525,-9.525 V 88.434934 a 9.525,9.525 135 0 1 9.525,-9.525 h 0.07 a 9.525,9.525 45 0 1 9.525,9.525 c 0,4.671541 2.1381,4.713501 5.6488,0.805705 0.7561,-0.841693 1.5317,-1.641391 2.3268,-2.399094 3.7979,-3.619481 11.3814,-7.840158 16.455,-9.176567 1.0736,-0.282784 2.1733,-0.526764 3.2992,-0.731939 5.1682,-0.941867 13.812,-0.97373 18.927,0.205704 1.2096,0.278906 2.385,0.615048 3.5263,1.008424 4.9547,1.707838 12.0224,6.844541 15.2269,10.993159 0.8198,1.061283 1.59,2.184192 2.3107,3.368727 2.7293,4.485576 6.0015,4.817635 9.2039,0.650163 z"
         id="path11818"
         inkscape:path-effect="#path-effect13332"
         inkscape:original-d="m 1243.2206,101.13084 q 7.1313,-12.81578 17.0532,-18.913609 9.9219,-6.097829 23.3578,-6.097829 18.0868,0 27.9053,12.712423 9.8185,12.609075 9.8185,35.966855 v 69.86665 h -19.1203 V 125.4188 q 0,-16.63984 -5.8911,-24.70138 -5.8911,-8.061533 -17.9834,-8.061533 -14.7795,0 -23.3578,9.818543 -8.5783,9.81853 -8.5783,26.76843 v 65.42247 h -19.1203 V 125.4188 q 0,-16.74319 -5.8911,-24.70138 -5.8912,-8.061533 -18.1902,-8.061533 -14.5727,0 -23.151,9.921893 -8.5783,9.81854 -8.5783,26.66508 v 65.42247 h -19.1204 V 78.909934 h 19.1204 v 17.983428 q 6.5112,-10.645363 15.6063,-15.709661 9.095,-5.064299 21.6007,-5.064299 12.6091,0 21.3941,6.407888 8.8884,6.407888 13.1259,18.60355 z" />
    </g>
  </g>
</svg>
