<?xml version="1.0" encoding="UTF-8" standalone="no"?>
<!-- Created with Inkscape (http://www.inkscape.org/) -->

<svg
   width="210mm"
   height="297mm"
   viewBox="0 0 210 297"
   version="1.1"
   id="svg5"
   inkscape:version="1.2.2 (732a01da63, 2022-12-09)"
   sodipodi:docname="drawing.svg"
   xmlns:inkscape="http://www.inkscape.org/namespaces/inkscape"
   xmlns:sodipodi="http://sodipodi.sourceforge.net/DTD/sodipodi-0.dtd"
   xmlns="http://www.w3.org/2000/svg"
   xmlns:svg="http://www.w3.org/2000/svg">
  <sodipodi:namedview
     id="namedview7"
     pagecolor="#505050"
     bordercolor="#eeeeee"
     borderopacity="1"
     inkscape:showpageshadow="0"
     inkscape:pageopacity="0"
     inkscape:pagecheckerboard="0"
     inkscape:deskcolor="#505050"
     inkscape:document-units="mm"
     showgrid="false"
     inkscape:zoom="0.13811175"
     inkscape:cx="-14.481027"
     inkscape:cy="1267.0898"
     inkscape:window-width="2560"
     inkscape:window-height="1057"
     inkscape:window-x="1912"
     inkscape:window-y="-8"
     inkscape:window-maximized="1"
     inkscape:current-layer="layer1" />
  <defs
     id="defs2">
    <rect
       x="-3486.0938"
       y="1580.875"
       width="5938.2812"
       height="2039.125"
       id="rect18209" />
    <rect
       x="-3486.0938"
       y="1580.875"
       width="5938.2812"
       height="2039.125"
       id="rect18209-2" />
    <clipPath
       clipPathUnits="userSpaceOnUse"
       id="clipPath1301">
      <path
         style="fill:#d5320c;stroke:#661100;stroke-width:0;stroke-dasharray:none"
         d="m 2730.7461,571.36879 19.2338,5.58821 -2.9569,17.61078 -22.6378,5.23848 -29.373,2.99342 -16.8381,-2.61924 -3.9287,-11.5995 -18.709,-17.21215 3.9291,-11.7866 14.5928,-2.80633 17.5863,1.30963 9.5414,12.34784 z"
         id="path1303" />
    </clipPath>
    <clipPath
       clipPathUnits="userSpaceOnUse"
       id="clipPath4615">
      <path
         style="fill:#10c287;fill-opacity:1;stroke:none;stroke-width:15;stroke-dasharray:none;stroke-opacity:1"
         d="m 2707.5204,436.34442 0.1871,1.23947 9.5181,26.28596 13.4112,24.09174 4.7625,17.19791 3.175,18.78542 c 0,0 0.2646,13.22917 0.2646,14.2875 0,1.05831 -3.9688,20.6375 -3.9688,20.6375 l -0.7318,14.52314 0.7236,1.34048 6.7345,2.52905 6.9908,-1.41179 0.158,-0.0889 23.5079,-32.12219 -7.2964,-66.0423 -18.709,-26.56655 -64.5456,-57.62331 c 0,0 -62.3004,15.90249 -63.0489,16.27669 -0.7482,0.3742 -32.7406,16.65089 -36.4823,20.76685 -3.7417,4.11597 -28.0633,24.69571 -28.0633,24.69571 0,0 -14.5928,35.54685 -14.5928,36.66937 0,1.12252 8.2319,124.78816 8.2319,124.78816 l 53.3202,36.10811 c 0,0 78.0161,6.17392 79.1385,6.17392 1.1226,0 27.6891,-6.92232 27.6891,-8.41901 0,-1.4967 -3.5546,-24.88277 -3.5546,-24.88277 l -0.1871,-11.22532 -16.2766,-1.12257 -14.7802,4.49016 -21.5151,0.18709 -21.3281,-3.18053 -12.7222,-7.29644 -13.2831,-11.03826 -14.9673,-12.5349 c 0,0 -5.6126,-10.85117 -6.5479,-12.16078 -0.9355,-1.30963 -4.4902,-14.78002 -4.4902,-14.78002 l -1.4968,-10.47697 -0.7482,-32.92758 4.677,-13.47039 6.1741,-12.72201 13.0961,-13.2833 8.7931,-9.35445 20.7669,-9.35445 3.5547,-5.42555 -0.9639,-2.86104 -12.0054,-12.99353 13.9049,-14.82799 42.282,0.74837 z"
         id="path4617" />
    </clipPath>
    <clipPath
       clipPathUnits="userSpaceOnUse"
       id="clipPath1301-8">
      <path
         style="fill:#d5320c;stroke:#661100;stroke-width:0;stroke-dasharray:none"
         d="m 2730.7461,571.36879 19.2338,5.58821 -2.9569,17.61078 -22.6378,5.23848 -29.373,2.99342 -16.8381,-2.61924 -3.9287,-11.5995 -18.709,-17.21215 3.9291,-11.7866 14.5928,-2.80633 17.5863,1.30963 9.5414,12.34784 z"
         id="path1303-43" />
    </clipPath>
    <clipPath
       clipPathUnits="userSpaceOnUse"
       id="clipPath4615-1">
      <path
         style="fill:#10c287;fill-opacity:1;stroke:none;stroke-width:15;stroke-dasharray:none;stroke-opacity:1"
         d="m 2707.5204,436.34442 0.1871,1.23947 9.5181,26.28596 13.4112,24.09174 4.7625,17.19791 3.175,18.78542 c 0,0 0.2646,13.22917 0.2646,14.2875 0,1.05831 -3.9688,20.6375 -3.9688,20.6375 l -0.7318,14.52314 0.7236,1.34048 6.7345,2.52905 6.9908,-1.41179 0.158,-0.0889 23.5079,-32.12219 -7.2964,-66.0423 -18.709,-26.56655 -64.5456,-57.62331 c 0,0 -62.3004,15.90249 -63.0489,16.27669 -0.7482,0.3742 -32.7406,16.65089 -36.4823,20.76685 -3.7417,4.11597 -28.0633,24.69571 -28.0633,24.69571 0,0 -14.5928,35.54685 -14.5928,36.66937 0,1.12252 8.2319,124.78816 8.2319,124.78816 l 53.3202,36.10811 c 0,0 78.0161,6.17392 79.1385,6.17392 1.1226,0 27.6891,-6.92232 27.6891,-8.41901 0,-1.4967 -3.5546,-24.88277 -3.5546,-24.88277 l -0.1871,-11.22532 -16.2766,-1.12257 -14.7802,4.49016 -21.5151,0.18709 -21.3281,-3.18053 -12.7222,-7.29644 -13.2831,-11.03826 -14.9673,-12.5349 c 0,0 -5.6126,-10.85117 -6.5479,-12.16078 -0.9355,-1.30963 -4.4902,-14.78002 -4.4902,-14.78002 l -1.4968,-10.47697 -0.7482,-32.92758 4.677,-13.47039 6.1741,-12.72201 13.0961,-13.2833 8.7931,-9.35445 20.7669,-9.35445 3.5547,-5.42555 -0.9639,-2.86104 -12.0054,-12.99353 13.9049,-14.82799 42.282,0.74837 z"
         id="path4617-9" />
    </clipPath>
    <clipPath
       clipPathUnits="userSpaceOnUse"
       id="clipPath1301-8-0">
      <path
         style="fill:#d5320c;stroke:#661100;stroke-width:0;stroke-dasharray:none"
         d="m 2730.7461,571.36879 19.2338,5.58821 -2.9569,17.61078 -22.6378,5.23848 -29.373,2.99342 -16.8381,-2.61924 -3.9287,-11.5995 -18.709,-17.21215 3.9291,-11.7866 14.5928,-2.80633 17.5863,1.30963 9.5414,12.34784 z"
         id="path1303-43-7" />
    </clipPath>
    <clipPath
       clipPathUnits="userSpaceOnUse"
       id="clipPath4615-1-5">
      <path
         style="fill:#10c287;fill-opacity:1;stroke:none;stroke-width:15;stroke-dasharray:none;stroke-opacity:1"
         d="m 2707.5204,436.34442 0.1871,1.23947 9.5181,26.28596 13.4112,24.09174 4.7625,17.19791 3.175,18.78542 c 0,0 0.2646,13.22917 0.2646,14.2875 0,1.05831 -3.9688,20.6375 -3.9688,20.6375 l -0.7318,14.52314 0.7236,1.34048 6.7345,2.52905 6.9908,-1.41179 0.158,-0.0889 23.5079,-32.12219 -7.2964,-66.0423 -18.709,-26.56655 -64.5456,-57.62331 c 0,0 -62.3004,15.90249 -63.0489,16.27669 -0.7482,0.3742 -32.7406,16.65089 -36.4823,20.76685 -3.7417,4.11597 -28.0633,24.69571 -28.0633,24.69571 0,0 -14.5928,35.54685 -14.5928,36.66937 0,1.12252 8.2319,124.78816 8.2319,124.78816 l 53.3202,36.10811 c 0,0 78.0161,6.17392 79.1385,6.17392 1.1226,0 27.6891,-6.92232 27.6891,-8.41901 0,-1.4967 -3.5546,-24.88277 -3.5546,-24.88277 l -0.1871,-11.22532 -16.2766,-1.12257 -14.7802,4.49016 -21.5151,0.18709 -21.3281,-3.18053 -12.7222,-7.29644 -13.2831,-11.03826 -14.9673,-12.5349 c 0,0 -5.6126,-10.85117 -6.5479,-12.16078 -0.9355,-1.30963 -4.4902,-14.78002 -4.4902,-14.78002 l -1.4968,-10.47697 -0.7482,-32.92758 4.677,-13.47039 6.1741,-12.72201 13.0961,-13.2833 8.7931,-9.35445 20.7669,-9.35445 3.5547,-5.42555 -0.9639,-2.86104 -12.0054,-12.99353 13.9049,-14.82799 42.282,0.74837 z"
         id="path4617-9-6" />
    </clipPath>
    <clipPath
       clipPathUnits="userSpaceOnUse"
       id="clipPath1301-2">
      <path
         style="fill:#d5320c;stroke:#661100;stroke-width:0;stroke-dasharray:none"
         d="m 2730.7461,571.36879 19.2338,5.58821 -2.9569,17.61078 -22.6378,5.23848 -29.373,2.99342 -16.8381,-2.61924 -3.9287,-11.5995 -18.709,-17.21215 3.9291,-11.7866 14.5928,-2.80633 17.5863,1.30963 9.5414,12.34784 z"
         id="path1303-8" />
    </clipPath>
    <clipPath
       clipPathUnits="userSpaceOnUse"
       id="clipPath4615-17">
      <path
         style="fill:#10c287;fill-opacity:1;stroke:none;stroke-width:15;stroke-dasharray:none;stroke-opacity:1"
         d="m 2707.5204,436.34442 0.1871,1.23947 9.5181,26.28596 13.4112,24.09174 4.7625,17.19791 3.175,18.78542 c 0,0 0.2646,13.22917 0.2646,14.2875 0,1.05831 -3.9688,20.6375 -3.9688,20.6375 l -0.7318,14.52314 0.7236,1.34048 6.7345,2.52905 6.9908,-1.41179 0.158,-0.0889 23.5079,-32.12219 -7.2964,-66.0423 -18.709,-26.56655 -64.5456,-57.62331 c 0,0 -62.3004,15.90249 -63.0489,16.27669 -0.7482,0.3742 -32.7406,16.65089 -36.4823,20.76685 -3.7417,4.11597 -28.0633,24.69571 -28.0633,24.69571 0,0 -14.5928,35.54685 -14.5928,36.66937 0,1.12252 8.2319,124.78816 8.2319,124.78816 l 53.3202,36.10811 c 0,0 78.0161,6.17392 79.1385,6.17392 1.1226,0 27.6891,-6.92232 27.6891,-8.41901 0,-1.4967 -3.5546,-24.88277 -3.5546,-24.88277 l -0.1871,-11.22532 -16.2766,-1.12257 -14.7802,4.49016 -21.5151,0.18709 -21.3281,-3.18053 -12.7222,-7.29644 -13.2831,-11.03826 -14.9673,-12.5349 c 0,0 -5.6126,-10.85117 -6.5479,-12.16078 -0.9355,-1.30963 -4.4902,-14.78002 -4.4902,-14.78002 l -1.4968,-10.47697 -0.7482,-32.92758 4.677,-13.47039 6.1741,-12.72201 13.0961,-13.2833 8.7931,-9.35445 20.7669,-9.35445 3.5547,-5.42555 -0.9639,-2.86104 -12.0054,-12.99353 13.9049,-14.82799 42.282,0.74837 z"
         id="path4617-3" />
    </clipPath>
    <clipPath
       clipPathUnits="userSpaceOnUse"
       id="clipPath1301-2-5">
      <path
         style="fill:#d5320c;stroke:#661100;stroke-width:0;stroke-dasharray:none"
         d="m 2730.7461,571.36879 19.2338,5.58821 -2.9569,17.61078 -22.6378,5.23848 -29.373,2.99342 -16.8381,-2.61924 -3.9287,-11.5995 -18.709,-17.21215 3.9291,-11.7866 14.5928,-2.80633 17.5863,1.30963 9.5414,12.34784 z"
         id="path1303-8-5" />
    </clipPath>
    <clipPath
       clipPathUnits="userSpaceOnUse"
       id="clipPath4615-17-9">
      <path
         style="fill:#10c287;fill-opacity:1;stroke:none;stroke-width:15;stroke-dasharray:none;stroke-opacity:1"
         d="m 2707.5204,436.34442 0.1871,1.23947 9.5181,26.28596 13.4112,24.09174 4.7625,17.19791 3.175,18.78542 c 0,0 0.2646,13.22917 0.2646,14.2875 0,1.05831 -3.9688,20.6375 -3.9688,20.6375 l -0.7318,14.52314 0.7236,1.34048 6.7345,2.52905 6.9908,-1.41179 0.158,-0.0889 23.5079,-32.12219 -7.2964,-66.0423 -18.709,-26.56655 -64.5456,-57.62331 c 0,0 -62.3004,15.90249 -63.0489,16.27669 -0.7482,0.3742 -32.7406,16.65089 -36.4823,20.76685 -3.7417,4.11597 -28.0633,24.69571 -28.0633,24.69571 0,0 -14.5928,35.54685 -14.5928,36.66937 0,1.12252 8.2319,124.78816 8.2319,124.78816 l 53.3202,36.10811 c 0,0 78.0161,6.17392 79.1385,6.17392 1.1226,0 27.6891,-6.92232 27.6891,-8.41901 0,-1.4967 -3.5546,-24.88277 -3.5546,-24.88277 l -0.1871,-11.22532 -16.2766,-1.12257 -14.7802,4.49016 -21.5151,0.18709 -21.3281,-3.18053 -12.7222,-7.29644 -13.2831,-11.03826 -14.9673,-12.5349 c 0,0 -5.6126,-10.85117 -6.5479,-12.16078 -0.9355,-1.30963 -4.4902,-14.78002 -4.4902,-14.78002 l -1.4968,-10.47697 -0.7482,-32.92758 4.677,-13.47039 6.1741,-12.72201 13.0961,-13.2833 8.7931,-9.35445 20.7669,-9.35445 3.5547,-5.42555 -0.9639,-2.86104 -12.0054,-12.99353 13.9049,-14.82799 42.282,0.74837 z"
         id="path4617-3-4" />
    </clipPath>
    <clipPath
       clipPathUnits="userSpaceOnUse"
       id="clipPath1301-2-5-5">
      <path
         style="fill:#d5320c;stroke:#661100;stroke-width:0;stroke-dasharray:none"
         d="m 2730.7461,571.36879 19.2338,5.58821 -2.9569,17.61078 -22.6378,5.23848 -29.373,2.99342 -16.8381,-2.61924 -3.9287,-11.5995 -18.709,-17.21215 3.9291,-11.7866 14.5928,-2.80633 17.5863,1.30963 9.5414,12.34784 z"
         id="path1303-8-5-7" />
    </clipPath>
  </defs>
  <g
     inkscape:label="Layer 1"
     inkscape:groupmode="layer"
     id="layer1">
    <text
       xml:space="preserve"
       transform="matrix(0.26458333,0,0,0.26458333,933.40005,-407.95958)"
       id="text18207"
       style="font-style:normal;font-variant:normal;font-weight:normal;font-stretch:normal;font-size:53.3333px;font-family:'SF Pro Display';-inkscape-font-specification:'SF Pro Display, Normal';font-variant-ligatures:normal;font-variant-caps:normal;font-variant-numeric:normal;font-variant-east-asian:normal;white-space:pre;shape-inside:url(#rect18209);fill:#000066;fill-opacity:1;stroke:none;stroke-width:34.0157;stroke-dasharray:none;stroke-opacity:1"><tspan
         x="-3486.0938"
         y="1629.5326"
         id="tspan1044">@ + t + d</tspan></text>
    <text
       xml:space="preserve"
       transform="matrix(0.26458333,0,0,0.26458333,932.50466,-379.83089)"
       id="text18207-5"
       style="font-style:normal;font-variant:normal;font-weight:normal;font-stretch:normal;font-size:53.3333px;font-family:'SF Pro Display';-inkscape-font-specification:'SF Pro Display, Normal';font-variant-ligatures:normal;font-variant-caps:normal;font-variant-numeric:normal;font-variant-east-asian:normal;white-space:pre;shape-inside:url(#rect18209-2);display:inline;fill:#000066;fill-opacity:1;stroke:none;stroke-width:34.0157;stroke-dasharray:none;stroke-opacity:1"><tspan
         x="-3486.0938"
         y="1629.5326"
         id="tspan1046">SF Pro Display - Normal, Regular</tspan></text>
    <text
       xml:space="preserve"
       style="font-style:normal;font-variant:normal;font-weight:normal;font-stretch:normal;font-size:211.667px;font-family:'SF Pro Display';-inkscape-font-specification:'SF Pro Display, Normal';font-variant-ligatures:normal;font-variant-caps:normal;font-variant-numeric:normal;font-variant-east-asian:normal;fill:#011645;fill-opacity:1;stroke:none;stroke-width:13.7;stroke-dasharray:none;stroke-opacity:1"
       x="509.1857"
       y="256.6524"
       id="text2590-7"
       inkscape:export-filename="logo.png"
       inkscape:export-xdpi="96"
       inkscape:export-ydpi="96"><tspan
         sodipodi:role="line"
         id="tspan2588-3"
         style="fill:#011645;fill-opacity:1;stroke-width:13.7"
         x="509.1857"
         y="256.6524">dor<tspan
   style="font-style:normal;font-variant:normal;font-weight:normal;font-stretch:normal;font-size:141.111px;font-family:'SF Pro Display';-inkscape-font-specification:'SF Pro Display, Normal';font-variant-ligatures:normal;font-variant-caps:normal;font-variant-numeric:normal;font-variant-east-asian:normal;fill:#011645;fill-opacity:1"
   id="tspan4851"> </tspan>thm</tspan></text>
    <rect
       style="fill:#10c287;fill-opacity:1;stroke:none;stroke-width:9.49257;stroke-dasharray:none;stroke-opacity:1"
       id="rect1388-3-8-3"
       width="13.2"
       height="176.56506"
       x="-415.51114"
       y="42.522739"
       transform="scale(-1,1)" />
    <path
       style="fill:#10c287;fill-opacity:1;stroke:none;stroke-width:9.57;stroke-dasharray:none"
       d="m 415.50748,218.91276 -3.1379,-0.0744 -10.0582,0.10647 v 0.14158 c 0.035,0.90243 0.16,1.82991 0.2988,2.73161 l 0.5363,0.0496 12.0189,-1.52032 z"
       id="path2233"
       sodipodi:nodetypes="cccccccc" />
    <ellipse
       style="fill:none;fill-opacity:1;stroke:#10c287;stroke-width:15;stroke-dasharray:none;stroke-opacity:1"
       id="path657-6-0-0"
       cx="372.71915"
       cy="200.27364"
       rx="34.384533"
       ry="34.384518" />
    <path
       style="fill:#10c287;fill-opacity:1;stroke:none;stroke-width:15;stroke-dasharray:none;stroke-opacity:1"
       d="m 360.48238,110.02534 -12.0051,-12.9917 c 13.2568,-6.263429 52.7112,-13.950249 87.586,3.46567 l 9.5559,26.32191 c -20.7556,-11.3161 -34.8649,-27.61699 -85.1368,-16.79588 z"
       id="path4543"
       sodipodi:nodetypes="ccccc" />
    <text
       xml:space="preserve"
       style="font-style:normal;font-variant:normal;font-weight:normal;font-stretch:normal;font-size:246.944px;font-family:'SF Pro Display';-inkscape-font-specification:'SF Pro Display, Normal';font-variant-ligatures:normal;font-variant-caps:normal;font-variant-numeric:normal;font-variant-east-asian:normal;fill:#011645;fill-opacity:1;stroke:none;stroke-width:13.7;stroke-dasharray:none;stroke-opacity:1"
       x="2533.0938"
       y="610.13849"
       id="text2590-9-5"
       clip-path="url(#clipPath4615)"
       transform="translate(-2271.6136,-337.02194)"><tspan
         sodipodi:role="line"
         id="tspan2588-5-5"
         style="font-style:normal;font-variant:normal;font-weight:normal;font-stretch:normal;font-size:246.944px;font-family:'SF Pro Display';-inkscape-font-specification:'SF Pro Display, Normal';font-variant-ligatures:normal;font-variant-caps:normal;font-variant-numeric:normal;font-variant-east-asian:normal;fill:#011645;fill-opacity:1;stroke-width:13.7"
         x="2533.0938"
         y="610.13849">@</tspan></text>
    <rect
       style="fill:#011645;fill-opacity:1;stroke:none;stroke-width:15;stroke-dasharray:none;stroke-opacity:1"
       id="rect4671"
       width="19.831398"
       height="115.80788"
       x="878.95984"
       y="140.98926" />
    <circle
       style="fill:#10c287;fill-opacity:1;stroke:none;stroke-width:11.4386;stroke-dasharray:none;stroke-opacity:1"
       id="path4725"
       cx="888.87537"
       cy="111.80322"
       r="9.9154997" />
    <circle
       style="fill:#10c287;fill-opacity:1;stroke:none;stroke-width:11.4386;stroke-dasharray:none;stroke-opacity:1"
       id="path4725-9"
       cx="488.4873"
       cy="401.30225"
       r="9.9154997"
       inkscape:export-filename="logo-icon.png"
       inkscape:export-xdpi="96"
       inkscape:export-ydpi="96" />
    <ellipse
       style="fill:none;fill-opacity:1;stroke:#10c287;stroke-width:15.7163;stroke-dasharray:none;stroke-opacity:1"
       id="path657-6-0-0-2"
       cx="2707.4812"
       cy="551.85468"
       rx="40.797066"
       ry="38.680386"
       clip-path="url(#clipPath1301-2)"
       transform="matrix(0.83369113,0,0,1,-1814.5002,-337.88017)" />
    <rect
       style="fill:#10c287;fill-opacity:1;stroke:none;stroke-width:9.49257;stroke-dasharray:none;stroke-opacity:1"
       id="rect1388-3-8-3-5"
       width="13.2"
       height="176.56506"
       x="-412.86554"
       y="350.96542"
       transform="scale(-1,1)" />
    <path
       style="fill:#10c287;fill-opacity:1;stroke:none;stroke-width:9.57;stroke-dasharray:none"
       d="m 412.86189,527.35544 -3.1379,-0.0744 -10.0582,0.10647 v 0.14158 c 0.035,0.90243 0.16,1.82991 0.2988,2.73161 l 0.5363,0.0496 12.0189,-1.52032 z"
       id="path2233-7"
       sodipodi:nodetypes="cccccccc" />
    <ellipse
       style="fill:none;fill-opacity:1;stroke:#10c287;stroke-width:15;stroke-dasharray:none;stroke-opacity:1"
       id="path657-6-0-0-0"
       cx="370.07355"
       cy="508.71631"
       rx="34.384533"
       ry="34.384518" />
    <path
       style="fill:#10c287;fill-opacity:1;stroke:none;stroke-width:15;stroke-dasharray:none;stroke-opacity:1"
       d="m 357.83679,418.46802 -12.0051,-12.9917 c 13.2568,-6.26343 52.7112,-13.95025 87.586,3.46567 l 9.5559,26.32191 c -20.7556,-11.3161 -34.8649,-27.61699 -85.1368,-16.79588 z"
       id="path4543-3"
       sodipodi:nodetypes="ccccc" />
    <text
       xml:space="preserve"
       style="font-style:normal;font-variant:normal;font-weight:normal;font-stretch:normal;font-size:246.944px;font-family:'SF Pro Display';-inkscape-font-specification:'SF Pro Display, Normal';font-variant-ligatures:normal;font-variant-caps:normal;font-variant-numeric:normal;font-variant-east-asian:normal;fill:#011645;fill-opacity:1;stroke:none;stroke-width:13.7;stroke-dasharray:none;stroke-opacity:1"
       x="2533.0938"
       y="610.13849"
       id="text2590-9-5-2"
       clip-path="url(#clipPath4615-17)"
       transform="translate(-2274.2592,-28.57926)"><tspan
         sodipodi:role="line"
         id="tspan2588-5-5-9"
         style="font-style:normal;font-variant:normal;font-weight:normal;font-stretch:normal;font-size:246.944px;font-family:'SF Pro Display';-inkscape-font-specification:'SF Pro Display, Normal';font-variant-ligatures:normal;font-variant-caps:normal;font-variant-numeric:normal;font-variant-east-asian:normal;fill:#011645;fill-opacity:1;stroke-width:13.7"
         x="2533.0938"
         y="610.13849">@</tspan></text>
    <ellipse
       style="fill:none;fill-opacity:1;stroke:#10c287;stroke-width:15.7163;stroke-dasharray:none;stroke-opacity:1"
       id="path657-6-0-0-2-5"
       cx="2707.4812"
       cy="551.85468"
       rx="40.797066"
       ry="38.680386"
       clip-path="url(#clipPath1301-2-5)"
       transform="matrix(0.83369113,0,0,1,-1817.1458,-29.43749)" />
    <circle
       style="fill:#10c287;fill-opacity:1;stroke:none;stroke-width:11.4386;stroke-dasharray:none;stroke-opacity:1"
       id="path4725-9-1"
       cx="212.28519"
       cy="113.94437"
       r="9.9154997" />
    <rect
       style="fill:#10c287;fill-opacity:1;stroke:none;stroke-width:9.49257;stroke-dasharray:none;stroke-opacity:1"
       id="rect1388-3-8-3-5-5"
       width="13.2"
       height="176.56506"
       x="-136.66342"
       y="63.607544"
       transform="scale(-1,1)" />
    <path
       style="fill:#10c287;fill-opacity:1;stroke:none;stroke-width:9.57;stroke-dasharray:none"
       d="m 136.65977,239.99756 -3.1379,-0.0744 -10.0582,0.10647 v 0.14158 c 0.035,0.90243 0.16,1.82991 0.2988,2.73161 l 0.5363,0.0496 12.0189,-1.52032 z"
       id="path2233-7-8"
       sodipodi:nodetypes="cccccccc" />
    <ellipse
       style="fill:none;fill-opacity:1;stroke:#10c287;stroke-width:15;stroke-dasharray:none;stroke-opacity:1"
       id="path657-6-0-0-0-1"
       cx="93.871429"
       cy="221.35843"
       rx="34.384533"
       ry="34.384518" />
    <path
       style="fill:#10c287;fill-opacity:1;stroke:none;stroke-width:15;stroke-dasharray:none;stroke-opacity:1"
       d="m 81.634674,131.11014 -12.0051,-12.9917 c 13.2568,-6.26343 52.711196,-13.95025 87.585996,3.46567 l 9.5559,26.32191 c -20.7556,-11.3161 -34.8649,-27.61699 -85.136796,-16.79588 z"
       id="path4543-3-3"
       sodipodi:nodetypes="ccccc" />
    <text
       xml:space="preserve"
       style="font-style:normal;font-variant:normal;font-weight:normal;font-stretch:normal;font-size:246.944px;font-family:'SF Pro Display';-inkscape-font-specification:'SF Pro Display, Normal';font-variant-ligatures:normal;font-variant-caps:normal;font-variant-numeric:normal;font-variant-east-asian:normal;fill:#011645;fill-opacity:1;stroke:none;stroke-width:13.7;stroke-dasharray:none;stroke-opacity:1"
       x="2533.0938"
       y="610.13849"
       id="text2590-9-5-2-9"
       clip-path="url(#clipPath4615-17-9)"
       transform="translate(-2550.4614,-315.93714)"><tspan
         sodipodi:role="line"
         id="tspan2588-5-5-9-9"
         style="font-style:normal;font-variant:normal;font-weight:normal;font-stretch:normal;font-size:246.944px;font-family:'SF Pro Display';-inkscape-font-specification:'SF Pro Display, Normal';font-variant-ligatures:normal;font-variant-caps:normal;font-variant-numeric:normal;font-variant-east-asian:normal;fill:#011645;fill-opacity:1;stroke-width:13.7"
         x="2533.0938"
         y="610.13849">@</tspan></text>
    <ellipse
       style="fill:none;fill-opacity:1;stroke:#10c287;stroke-width:15.7163;stroke-dasharray:none;stroke-opacity:1"
       id="path657-6-0-0-2-5-9"
       cx="2707.4812"
       cy="551.85468"
       rx="40.797066"
       ry="38.680386"
       clip-path="url(#clipPath1301-2-5-5)"
       transform="matrix(0.83369113,0,0,1,-2093.3479,-316.79537)" />
  </g>
</svg>
