<?xml version="1.0" encoding="UTF-8" standalone="no"?>
<!-- Created with Inkscape (http://www.inkscape.org/) -->

<svg
   width="583.6698mm"
   height="567.19592mm"
   viewBox="0 0 583.6698 567.19592"
   version="1.1"
   id="svg5"
   inkscape:version="1.2.2 (732a01da63, 2022-12-09, custom)"
   sodipodi:docname="internet-connection-lost"
   xmlns:inkscape="http://www.inkscape.org/namespaces/inkscape"
   xmlns:sodipodi="http://sodipodi.sourceforge.net/DTD/sodipodi-0.dtd"
   xmlns="http://www.w3.org/2000/svg"
   xmlns:svg="http://www.w3.org/2000/svg">
  <sodipodi:namedview
     id="namedview7"
     pagecolor="#505050"
     bordercolor="#eeeeee"
     borderopacity="1"
     inkscape:showpageshadow="0"
     inkscape:pageopacity="0"
     inkscape:pagecheckerboard="0"
     inkscape:deskcolor="#505050"
     inkscape:document-units="mm"
     showgrid="false"
     inkscape:zoom="0.17549804"
     inkscape:cx="857.55945"
     inkscape:cy="1527.0826"
     inkscape:window-width="1920"
     inkscape:window-height="1015"
     inkscape:window-x="0"
     inkscape:window-y="0"
     inkscape:window-maximized="1"
     inkscape:current-layer="layer1" />
  <defs
     id="defs2" />
  <g
     inkscape:label="Layer 1"
     inkscape:groupmode="layer"
     id="layer1"
     transform="translate(355.77895,-443.33121)">
    <g
       id="g6773"
       transform="matrix(0.26458333,0,0,0.26458333,-355.77895,443.33121)">
      <g
         id="g1805"
         style="fill:#dae0f3;fill-opacity:1"
         transform="matrix(4.882121,0,0,4.882121,-122.38013,-166.55535)">
		<path
   style="fill:#dae0f3;fill-opacity:1"
   d="m 39.049,242.65 c 1.312,3.124 2.575,6.26 3.801,9.419 13.199,34.003 76.479,190.834 130.317,216.203 60.449,28.484 297.522,-74.345 303.462,-147.674 C 482.569,247.268 395.846,55.282 346.546,43.89 297.246,32.498 82.716,125.664 49.275,161.34 20.721,191.801 34.431,231.652 39.049,242.65 Z"
   id="path1801" />

		<path
   style="opacity:0.8;fill:#dae0f3;fill-opacity:1"
   d="m 39.049,242.65 c 1.312,3.124 2.575,6.26 3.801,9.419 13.199,34.003 76.479,190.834 130.317,216.203 60.449,28.484 297.522,-74.345 303.462,-147.674 C 482.569,247.268 395.846,55.282 346.546,43.89 297.246,32.498 82.716,125.664 49.275,161.34 20.721,191.801 34.431,231.652 39.049,242.65 Z"
   id="path1803" />

	</g>
      <circle
         transform="rotate(-45)"
         style="fill:#ffffff;stroke:#02133e;stroke-width:29.2924;stroke-linecap:round;stroke-linejoin:round;stroke-miterlimit:10;stroke-opacity:1"
         cx="1054.9384"
         cy="1331.7684"
         id="ellipse1808"
         r="180.65628" />
      <g
         id="g1818"
         transform="matrix(4.882121,0,0,4.882121,-122.38013,-166.55535)">
			<path
   style="fill:#263238"
   d="m 370.8,60 c -5.53,0.04 -10.894,1.368 -15.767,4.324 -1.992,1.208 -3.803,2.722 -5.648,4.16 -1.068,0.832 -2.169,1.246 -3.506,0.846 -1.97,-0.59 -2.916,-2.974 -1.814,-4.716 0.371,-0.586 0.875,-1.111 1.399,-1.573 6.131,-5.413 13.242,-8.654 21.398,-9.475 11.186,-1.126 20.91,2.284 29.343,9.6 0.846,0.734 1.598,1.536 1.685,2.757 0.1,1.398 -0.432,2.473 -1.626,3.171 -1.211,0.708 -2.439,0.556 -3.563,-0.212 -0.662,-0.453 -1.238,-1.03 -1.86,-1.543 C 385.264,62.737 378.868,60.29 371.637,60.038 371.412,60.029 371.186,60.017 370.8,60 Z"
   id="path1810" />

			<path
   style="fill:#263238"
   d="m 387.285,77.845 c -1.028,0.02 -1.848,-0.427 -2.576,-1.102 -2.929,-2.72 -6.32,-4.632 -10.269,-5.278 -6.099,-0.998 -11.661,0.326 -16.48,4.333 -0.562,0.467 -1.103,0.964 -1.694,1.391 -1.424,1.03 -3.313,0.812 -4.442,-0.478 -1.105,-1.263 -1.095,-3.139 0.104,-4.4 2.67,-2.807 5.883,-4.81 9.502,-6.141 7.017,-2.58 13.938,-2.255 20.722,0.857 2.772,1.271 5.244,3.002 7.399,5.166 1.012,1.016 1.268,2.449 0.702,3.697 -0.576,1.273 -1.581,1.912 -2.968,1.955 z"
   id="path1812" />

			<path
   style="fill:#263238"
   d="m 370.678,75.557 c 4.514,0.095 8.382,1.691 11.497,5.016 1.231,1.314 1.294,3.269 0.137,4.519 -1.238,1.337 -3.15,1.42 -4.634,0.293 -1.175,-0.893 -2.326,-1.93 -3.662,-2.473 -3.48,-1.415 -6.666,-0.625 -9.439,1.862 -0.986,0.885 -1.993,1.586 -3.439,1.334 -2.427,-0.423 -3.555,-3.255 -2.02,-5.182 1.495,-1.876 3.404,-3.191 5.607,-4.104 1.905,-0.79 3.878,-1.249 5.953,-1.265 z"
   id="path1814" />

			<path
   style="fill:#263238"
   d="m 370.824,95.062 c -2.309,-0.011 -4.044,-1.725 -4.037,-3.989 0.006,-2.137 1.839,-3.98 3.944,-3.967 2.319,0.014 4.054,1.78 4.027,4.099 -0.025,2.12 -1.807,3.867 -3.934,3.857 z"
   id="path1816" />

		</g>
      <line
         style="fill:none;fill-opacity:1;stroke:#02133e;stroke-width:29.2927;stroke-linecap:round;stroke-linejoin:round;stroke-miterlimit:10;stroke-opacity:1"
         x1="1535.9591"
         y1="287.62344"
         x2="1828.8328"
         y2="87.412575"
         id="line1820" />
      <g
         id="g1831"
         style="fill:#2eb455;fill-opacity:1"
         transform="matrix(4.882121,0,0,4.882121,-122.38013,-166.55535)">
		<path
   style="fill:#2eb455;fill-opacity:1"
   d="m 106.396,377.854 c 3.442,1.248 11.62,0.539 11.627,0.539 0.085,-0.008 -2.104,-5.249 -2.28,-5.564 -2.037,-3.645 -8.117,-9.488 -12.701,-8.567 -3.302,0.663 -4.941,4.116 -3.989,7.204 0.973,3.155 4.412,5.324 7.343,6.388 z"
   id="path1825" />

		<path
   style="fill:#2eb455;fill-opacity:1"
   d="m 110.741,401.396 c 3.506,0.284 10.679,-2.303 11.249,-2.512 1.416,4.018 3.195,8.026 5.218,11.983 1.154,2.264 2.387,4.507 3.652,6.741 -0.729,-0.934 -1.388,-1.763 -1.492,-1.87 -2.928,-2.977 -10.336,-7.007 -14.513,-4.908 -3.011,1.511 -3.679,5.274 -1.945,8.001 1.77,2.785 5.661,3.97 8.769,4.221 3.154,0.256 9.314,-1.828 10.937,-2.401 0.494,0.852 0.978,1.708 1.476,2.558 2.386,4.079 4.785,8.139 7.016,12.194 0.787,1.428 1.509,2.864 2.238,4.298 -0.649,-0.829 -1.202,-1.522 -1.297,-1.619 -2.928,-2.976 -10.335,-7.007 -14.513,-4.908 -3.01,1.512 -3.68,5.275 -1.945,8.001 1.772,2.785 5.661,3.97 8.77,4.221 3.01,0.244 8.713,-1.628 10.645,-2.299 0.701,1.491 1.406,2.983 2.019,4.459 0.395,1.018 0.848,1.969 1.186,3.013 0.359,1.027 0.713,2.043 1.065,3.05 0.606,1.962 1.243,3.984 1.786,5.914 0.388,1.339 0.733,2.623 1.084,3.915 -0.767,-1.431 -2.327,-4.201 -2.484,-4.418 -2.442,-3.386 -9.153,-8.491 -13.602,-7.05 -3.204,1.039 -4.436,4.656 -3.134,7.614 1.329,3.021 4.994,4.781 8.028,5.501 3.341,0.792 10.537,-0.587 11.435,-0.766 0.574,2.139 1.111,4.226 1.587,6.204 0.181,0.745 0.35,1.465 0.517,2.179 h 2.912 c -0.236,-0.928 -0.483,-1.88 -0.744,-2.861 -0.573,-2.175 -1.229,-4.488 -1.926,-6.857 0.532,-0.251 3.545,-1.701 6.189,-3.409 2.554,2.434 8.867,5.069 9.684,5.403 -0.701,2.102 -1.405,4.138 -2.099,6.05 -0.205,0.57 -0.408,1.124 -0.611,1.673 h 2.968 c 0.086,-0.253 0.172,-0.502 0.259,-0.761 0.722,-2.13 1.451,-4.422 2.176,-6.781 0.889,0.127 8.164,1.126 11.463,0.157 2.991,-0.88 6.558,-2.833 7.725,-5.921 1.142,-3.022 -0.28,-6.57 -3.537,-7.436 -4.517,-1.203 -10.948,4.252 -13.206,7.763 -0.134,0.207 -1.329,2.616 -2.057,4.148 0.292,-0.965 0.585,-1.9 0.873,-2.898 0.584,-1.969 1.107,-3.952 1.677,-6.082 0.24,-1.039 0.482,-2.088 0.727,-3.148 0.264,-1.046 0.411,-2.184 0.624,-3.285 0.44,-2.565 0.761,-5.184 1.025,-7.83 1.726,0.505 7.879,2.215 10.984,1.796 3.091,-0.417 6.911,-1.806 8.532,-4.682 1.587,-2.815 0.719,-6.537 -2.368,-7.887 -4.284,-1.873 -11.466,2.546 -14.231,5.674 -0.173,0.194 -1.904,2.662 -2.829,4.036 0.147,-1.592 0.301,-3.18 0.397,-4.795 0.278,-4.663 0.414,-9.392 0.572,-14.109 0.047,-1.445 0.112,-2.884 0.171,-4.325 0.612,0.187 7.882,2.376 11.36,1.907 3.09,-0.416 6.912,-1.806 8.532,-4.682 1.587,-2.815 0.719,-6.537 -2.368,-7.886 -4.284,-1.874 -11.466,2.545 -14.231,5.673 -0.208,0.236 -2.695,3.79 -3.283,4.725 0.131,-3.174 0.292,-6.334 0.576,-9.444 0.386,-4.291 1.004,-8.48 1.901,-12.495 0.285,0.088 7.863,2.407 11.424,1.927 3.091,-0.417 6.912,-1.807 8.533,-4.682 1.587,-2.815 0.719,-6.536 -2.368,-7.887 -4.284,-1.873 -11.465,2.545 -14.231,5.673 -0.216,0.246 -2.89,4.071 -3.326,4.799 0.054,-0.239 0.084,-0.492 0.141,-0.729 1.012,-4.273 2.53,-8.286 4.135,-11.973 0.928,-2.145 1.936,-4.142 2.959,-6.064 1.368,0.577 7.644,3.143 10.897,3.065 3.117,-0.075 7.068,-1.037 8.995,-3.716 1.887,-2.624 1.432,-6.418 -1.487,-8.099 -4.053,-2.332 -11.676,1.271 -14.769,4.076 -0.168,0.152 -1.705,1.893 -2.807,3.176 0.475,-0.861 0.949,-1.757 1.421,-2.572 1.764,-3.065 3.568,-5.762 5.185,-8.138 0.93,-1.343 1.798,-2.54 2.622,-3.651 1.636,-0.134 8.226,-0.757 11.026,-2.296 2.731,-1.503 5.796,-4.177 6.271,-7.443 0.465,-3.199 -1.688,-6.357 -5.052,-6.502 -4.671,-0.204 -9.778,6.507 -11.229,10.422 -0.125,0.339 -1.479,5.855 -1.393,5.849 0,0 0.079,-0.006 0.099,-0.007 -0.815,1.053 -1.675,2.191 -2.591,3.455 -1.672,2.346 -3.54,5.011 -5.376,8.049 -1.844,3.032 -3.762,6.377 -5.465,10.082 -1.711,3.712 -3.321,7.705 -4.449,12.033 -0.013,0.049 -0.02,0.101 -0.033,0.15 -0.063,-1.369 -0.368,-5.189 -0.425,-5.479 -0.8,-4.098 -4.754,-11.546 -9.397,-12.101 -3.344,-0.399 -5.978,2.37 -6.036,5.601 -0.058,3.3 2.532,6.433 4.986,8.358 2.767,2.171 10.177,3.97 10.768,4.112 -1.036,4.131 -1.763,8.456 -2.258,12.872 -0.286,2.525 -0.495,5.077 -0.672,7.638 -0.093,-1.182 -0.185,-2.237 -0.214,-2.383 -0.8,-4.099 -4.754,-11.545 -9.397,-12.1 -3.345,-0.4 -5.979,2.37 -6.036,5.601 -0.059,3.3 2.531,6.433 4.985,8.358 2.49,1.953 8.777,3.614 10.446,4.031 -0.058,0.983 -0.126,1.965 -0.18,2.948 -0.26,4.719 -0.499,9.428 -0.875,14.041 -0.131,1.626 -0.321,3.221 -0.505,4.818 -0.084,-1.048 -0.163,-1.932 -0.189,-2.065 -0.8,-4.098 -4.754,-11.546 -9.396,-12.1 -3.346,-0.399 -5.98,2.369 -6.037,5.602 -0.059,3.299 2.532,6.433 4.986,8.358 2.375,1.864 8.165,3.449 10.147,3.954 -0.238,1.631 -0.473,3.263 -0.776,4.833 -0.232,1.067 -0.381,2.109 -0.673,3.168 -0.267,1.053 -0.532,2.097 -0.793,3.13 -0.578,1.972 -1.162,4.009 -1.773,5.918 -0.415,1.331 -0.837,2.592 -1.256,3.863 0.149,-1.616 0.377,-4.787 0.366,-5.054 -0.113,-2.772 -1.384,-7.208 -3.543,-10.247 -0.014,-0.409 -0.064,-0.815 -0.154,-1.216 -0.715,-3.152 -3.858,-5.325 -7.052,-4.252 -4.432,1.489 -6.785,9.587 -6.732,13.761 0.003,0.246 0.335,2.915 0.572,4.595 -0.29,-0.966 -0.56,-1.908 -0.87,-2.899 -0.601,-1.964 -1.258,-3.906 -1.956,-5.999 -0.373,-0.998 -0.75,-2.006 -1.131,-3.025 -0.356,-1.017 -0.861,-2.048 -1.291,-3.084 -1.048,-2.381 -2.226,-4.744 -3.465,-7.097 1.719,-0.53 7.794,-2.499 10.152,-4.562 2.348,-2.052 4.768,-5.32 4.534,-8.611 -0.23,-3.224 -3.006,-5.849 -6.325,-5.272 -4.607,0.801 -8.16,8.448 -8.741,12.583 -0.036,0.258 -0.119,3.271 -0.133,4.928 -0.756,-1.408 -1.503,-2.818 -2.314,-4.219 -2.34,-4.043 -4.834,-8.063 -7.306,-12.083 -0.757,-1.231 -1.497,-2.467 -2.243,-3.701 0.614,-0.183 7.886,-2.368 10.528,-4.677 2.348,-2.052 4.768,-5.319 4.534,-8.612 -0.229,-3.223 -3.007,-5.849 -6.325,-5.271 -4.607,0.8 -8.16,8.447 -8.741,12.582 -0.043,0.312 -0.157,4.648 -0.132,5.752 -1.641,-2.718 -3.251,-5.444 -4.73,-8.195 -2.044,-3.793 -3.841,-7.626 -5.307,-11.469 0.286,-0.085 7.886,-2.331 10.592,-4.696 2.348,-2.052 4.768,-5.319 4.533,-8.612 -0.229,-3.224 -3.006,-5.848 -6.326,-5.271 -4.606,0.8 -8.159,8.448 -8.74,12.582 -0.046,0.325 -0.165,4.99 -0.126,5.837 -0.087,-0.228 -0.202,-0.455 -0.286,-0.684 -1.512,-4.124 -2.46,-8.308 -3.155,-12.268 -0.409,-2.3 -0.67,-4.522 -0.876,-6.689 1.458,-0.273 8.11,-1.596 10.779,-3.455 2.56,-1.783 5.324,-4.764 5.453,-8.061 0.126,-3.23 -2.346,-6.144 -5.708,-5.935 -4.667,0.29 -9.038,7.501 -10.069,11.546 -0.056,0.22 -0.379,2.52 -0.59,4.198 -0.078,-0.98 -0.177,-1.989 -0.233,-2.929 -0.219,-3.529 -0.203,-6.774 -0.165,-9.648 0.035,-1.635 0.099,-3.111 0.174,-4.492 1.291,-1.015 6.443,-5.17 7.929,-7.999 1.45,-2.761 2.529,-6.681 1.124,-9.667 -1.377,-2.924 -4.914,-4.371 -7.801,-2.637 -4.008,2.408 -4.565,10.822 -3.617,14.888 0.083,0.351 1.997,5.699 2.065,5.647 0,0 0.063,-0.049 0.078,-0.061 -0.099,1.327 -0.188,2.752 -0.254,4.31 -0.101,2.879 -0.188,6.132 -0.044,9.68 0.134,3.546 0.38,7.394 1.005,11.424 0.621,4.04 1.48,8.259 2.927,12.49 0.016,0.048 0.04,0.096 0.056,0.143 -0.808,-1.107 -3.171,-4.124 -3.378,-4.335 -2.928,-2.977 -10.334,-7.007 -14.513,-4.908 -3.01,1.513 -3.68,5.275 -1.945,8.002 1.768,2.788 5.657,3.972 8.765,4.224 z"
   id="path1827" />

		<path
   style="fill:#2eb455;fill-opacity:1"
   d="m 189.352,374.354 c 0.075,0.041 1.141,-5.539 1.168,-5.898 0.31,-4.163 -1.537,-12.391 -5.869,-14.152 -3.12,-1.269 -6.391,0.707 -7.3,3.809 -0.929,3.167 0.742,6.873 2.601,9.378 2.182,2.94 9.395,6.86 9.4,6.863 z"
   id="path1829" />

	</g>
      <g
         id="g1839"
         transform="matrix(4.882121,0,0,4.882121,-122.38013,-166.55535)">
		<path
   style="fill:#2eb455;fill-opacity:1"
   d="m 37.273,419.041 c 1.948,0.706 6.575,0.305 6.579,0.305 0.048,-0.004 -1.19,-2.97 -1.29,-3.148 -1.153,-2.062 -4.593,-5.368 -7.187,-4.847 -1.868,0.375 -2.796,2.329 -2.257,4.076 0.551,1.784 2.496,3.012 4.155,3.614 z"
   id="path1833" />

		<path
   style="fill:#2eb455;fill-opacity:1"
   d="m 39.731,432.361 c 1.984,0.161 6.043,-1.303 6.365,-1.421 0.801,2.273 1.808,4.541 2.953,6.78 0.653,1.281 1.351,2.55 2.066,3.814 -0.413,-0.528 -0.786,-0.998 -0.845,-1.058 -1.657,-1.684 -5.848,-3.964 -8.211,-2.777 -1.704,0.855 -2.082,2.984 -1.101,4.527 1.002,1.576 3.203,2.246 4.962,2.388 1.785,0.145 5.27,-1.034 6.188,-1.358 0.28,0.482 0.553,0.967 0.835,1.447 1.35,2.308 2.707,4.605 3.97,6.899 0.445,0.808 0.854,1.62 1.266,2.432 -0.367,-0.469 -0.68,-0.861 -0.734,-0.916 -1.656,-1.684 -5.847,-3.965 -8.211,-2.777 -1.703,0.855 -2.082,2.984 -1.101,4.527 1.003,1.576 3.203,2.246 4.962,2.388 1.703,0.138 4.93,-0.921 6.023,-1.301 0.397,0.844 0.796,1.688 1.142,2.523 0.224,0.576 0.48,1.114 0.671,1.705 0.203,0.581 0.404,1.156 0.603,1.726 0.343,1.11 0.703,2.254 1.01,3.346 0.219,0.758 0.415,1.484 0.613,2.215 -0.434,-0.81 -1.316,-2.377 -1.405,-2.5 -1.382,-1.916 -5.179,-4.804 -7.696,-3.989 -1.813,0.588 -2.51,2.635 -1.773,4.308 0.752,1.709 2.826,2.706 4.542,3.112 1.89,0.448 5.962,-0.332 6.47,-0.433 0.324,1.211 0.629,2.391 0.898,3.51 0.102,0.421 0.198,0.829 0.293,1.233 h 1.647 c -0.133,-0.525 -0.273,-1.064 -0.421,-1.618 -0.324,-1.231 -0.696,-2.539 -1.09,-3.88 0.301,-0.142 2.006,-0.962 3.502,-1.929 1.445,1.377 5.017,2.868 5.479,3.057 -0.397,1.189 -0.795,2.341 -1.188,3.423 -0.116,0.322 -0.231,0.636 -0.346,0.947 h 1.679 c 0.049,-0.143 0.097,-0.284 0.146,-0.43 0.408,-1.205 0.821,-2.502 1.231,-3.837 0.503,0.072 4.619,0.637 6.486,0.089 1.692,-0.498 3.711,-1.603 4.371,-3.35 0.646,-1.71 -0.159,-3.717 -2.001,-4.207 -2.556,-0.681 -6.194,2.406 -7.473,4.393 -0.076,0.117 -0.752,1.48 -1.164,2.347 0.165,-0.546 0.331,-1.075 0.494,-1.64 0.33,-1.114 0.626,-2.236 0.949,-3.441 0.136,-0.588 0.273,-1.181 0.411,-1.781 0.15,-0.592 0.233,-1.236 0.353,-1.859 0.249,-1.451 0.43,-2.933 0.58,-4.43 0.976,0.286 4.458,1.253 6.215,1.016 1.749,-0.236 3.91,-1.022 4.827,-2.649 0.898,-1.593 0.407,-3.699 -1.34,-4.463 -2.424,-1.06 -6.488,1.44 -8.052,3.21 -0.098,0.11 -1.077,1.507 -1.601,2.284 0.083,-0.901 0.17,-1.799 0.225,-2.713 0.157,-2.638 0.234,-5.314 0.323,-7.983 0.027,-0.818 0.063,-1.632 0.097,-2.447 0.346,0.106 4.46,1.345 6.428,1.079 1.748,-0.235 3.911,-1.022 4.828,-2.649 0.898,-1.592 0.407,-3.698 -1.34,-4.462 -2.424,-1.06 -6.488,1.44 -8.052,3.21 -0.118,0.133 -1.525,2.145 -1.858,2.674 0.074,-1.796 0.165,-3.584 0.326,-5.344 0.218,-2.428 0.568,-4.798 1.076,-7.07 0.161,0.05 4.449,1.362 6.464,1.09 1.749,-0.236 3.911,-1.022 4.828,-2.649 0.898,-1.593 0.407,-3.698 -1.34,-4.462 -2.424,-1.06 -6.487,1.44 -8.052,3.21 -0.122,0.139 -1.635,2.303 -1.882,2.716 0.031,-0.135 0.048,-0.278 0.08,-0.413 0.573,-2.418 1.432,-4.688 2.34,-6.774 0.525,-1.213 1.095,-2.344 1.674,-3.431 0.774,0.326 4.325,1.779 6.166,1.734 1.764,-0.042 3.999,-0.587 5.089,-2.103 1.068,-1.485 0.81,-3.632 -0.841,-4.582 -2.293,-1.32 -6.606,0.719 -8.356,2.306 -0.095,0.086 -0.965,1.071 -1.588,1.797 0.269,-0.487 0.537,-0.994 0.804,-1.455 0.998,-1.734 2.019,-3.26 2.934,-4.605 0.526,-0.76 1.017,-1.437 1.484,-2.066 0.926,-0.076 4.654,-0.428 6.238,-1.299 1.546,-0.851 3.279,-2.363 3.548,-4.212 0.263,-1.81 -0.955,-3.597 -2.859,-3.679 -2.643,-0.115 -5.532,3.682 -6.353,5.897 -0.071,0.192 -0.837,3.313 -0.788,3.309 0,0 0.045,-0.003 0.056,-0.004 -0.461,0.596 -0.948,1.24 -1.466,1.955 -0.946,1.327 -2.003,2.835 -3.042,4.554 -1.044,1.715 -2.129,3.608 -3.092,5.705 -0.968,2.1 -1.879,4.359 -2.517,6.808 -0.007,0.027 -0.011,0.057 -0.019,0.085 -0.036,-0.774 -0.208,-2.936 -0.241,-3.1 -0.453,-2.318 -2.69,-6.533 -5.317,-6.847 -1.892,-0.226 -3.383,1.341 -3.415,3.169 -0.033,1.867 1.433,3.64 2.821,4.729 1.566,1.228 5.759,2.246 6.093,2.326 -0.586,2.338 -0.997,4.784 -1.278,7.283 -0.162,1.429 -0.28,2.873 -0.38,4.322 -0.053,-0.668 -0.104,-1.266 -0.121,-1.348 -0.453,-2.319 -2.69,-6.532 -5.317,-6.846 -1.893,-0.226 -3.383,1.341 -3.415,3.169 -0.034,1.867 1.432,3.64 2.821,4.729 1.409,1.105 4.966,2.045 5.911,2.281 -0.033,0.556 -0.072,1.112 -0.102,1.668 -0.147,2.67 -0.282,5.335 -0.495,7.944 -0.074,0.92 -0.181,1.823 -0.286,2.726 -0.047,-0.593 -0.092,-1.093 -0.107,-1.168 -0.453,-2.319 -2.69,-6.533 -5.316,-6.847 -1.893,-0.226 -3.383,1.341 -3.416,3.17 -0.034,1.867 1.433,3.64 2.821,4.729 1.344,1.055 4.62,1.952 5.741,2.237 -0.134,0.923 -0.267,1.847 -0.439,2.735 -0.131,0.604 -0.215,1.194 -0.381,1.793 -0.151,0.596 -0.301,1.187 -0.449,1.771 -0.327,1.116 -0.657,2.268 -1.003,3.349 -0.235,0.753 -0.473,1.467 -0.711,2.186 0.084,-0.915 0.213,-2.709 0.207,-2.86 -0.064,-1.568 -0.783,-4.079 -2.005,-5.798 -0.008,-0.232 -0.036,-0.461 -0.087,-0.688 -0.405,-1.783 -2.183,-3.013 -3.99,-2.406 -2.508,0.842 -3.839,5.424 -3.809,7.786 0.002,0.139 0.189,1.649 0.324,2.6 -0.164,-0.547 -0.317,-1.079 -0.492,-1.64 -0.34,-1.111 -0.712,-2.21 -1.107,-3.394 -0.211,-0.565 -0.425,-1.135 -0.64,-1.712 -0.201,-0.576 -0.487,-1.159 -0.731,-1.745 -0.593,-1.347 -1.259,-2.684 -1.96,-4.016 0.973,-0.3 4.41,-1.414 5.744,-2.581 1.329,-1.161 2.698,-3.01 2.565,-4.872 -0.13,-1.824 -1.701,-3.31 -3.579,-2.983 -2.606,0.453 -4.617,4.78 -4.946,7.12 -0.02,0.146 -0.067,1.851 -0.075,2.788 -0.428,-0.797 -0.851,-1.595 -1.31,-2.387 -1.324,-2.288 -2.735,-4.562 -4.134,-6.837 -0.429,-0.697 -0.847,-1.396 -1.269,-2.094 0.347,-0.103 4.462,-1.34 5.957,-2.646 1.328,-1.161 2.698,-3.01 2.565,-4.873 -0.13,-1.824 -1.701,-3.309 -3.579,-2.982 -2.607,0.453 -4.617,4.78 -4.946,7.119 -0.025,0.176 -0.089,2.63 -0.075,3.254 -0.928,-1.538 -1.839,-3.08 -2.676,-4.636 -1.157,-2.146 -2.173,-4.315 -3.003,-6.49 0.162,-0.048 4.462,-1.319 5.993,-2.657 1.328,-1.161 2.698,-3.01 2.565,-4.873 -0.129,-1.824 -1.701,-3.309 -3.579,-2.983 -2.606,0.453 -4.617,4.78 -4.945,7.119 -0.026,0.184 -0.093,2.824 -0.071,3.303 -0.049,-0.129 -0.115,-0.258 -0.162,-0.387 -0.856,-2.333 -1.392,-4.701 -1.785,-6.942 -0.231,-1.301 -0.379,-2.559 -0.496,-3.785 0.825,-0.155 4.589,-0.903 6.099,-1.955 1.448,-1.009 3.012,-2.696 3.085,-4.561 0.071,-1.827 -1.328,-3.477 -3.23,-3.358 -2.64,0.164 -5.114,4.244 -5.697,6.533 -0.032,0.125 -0.214,1.426 -0.334,2.375 -0.044,-0.554 -0.1,-1.126 -0.132,-1.657 -0.124,-1.997 -0.115,-3.833 -0.094,-5.459 0.02,-0.925 0.056,-1.76 0.098,-2.542 0.73,-0.574 3.646,-2.925 4.486,-4.526 0.82,-1.562 1.431,-3.78 0.636,-5.47 -0.779,-1.655 -2.78,-2.473 -4.414,-1.492 -2.268,1.363 -2.583,6.123 -2.046,8.424 0.047,0.198 1.13,3.224 1.168,3.195 0,0 0.036,-0.028 0.044,-0.035 -0.056,0.751 -0.106,1.557 -0.144,2.439 -0.057,1.629 -0.107,3.47 -0.025,5.477 0.076,2.006 0.215,4.184 0.568,6.464 0.351,2.286 0.837,4.673 1.657,7.067 0.009,0.027 0.022,0.054 0.032,0.081 -0.457,-0.626 -1.794,-2.333 -1.911,-2.453 -1.657,-1.684 -5.847,-3.964 -8.212,-2.777 -1.703,0.856 -2.082,2.984 -1.1,4.528 1.007,1.579 3.208,2.249 4.966,2.391 z"
   id="path1835" />

		<path
   style="fill:#2eb455;fill-opacity:1"
   d="m 84.211,417.06 c 0.042,0.023 0.646,-3.134 0.661,-3.337 0.175,-2.356 -0.87,-7.011 -3.321,-8.008 -1.765,-0.718 -3.616,0.4 -4.13,2.155 -0.525,1.792 0.42,3.889 1.472,5.306 1.234,1.664 5.315,3.882 5.318,3.884 z"
   id="path1837" />

	</g>
      <g
         id="g1847"
         style="fill:#2eb455;fill-opacity:1"
         transform="matrix(4.882121,0,0,4.882121,-122.38013,-166.55535)">
		<path
   style="fill:#2eb455;fill-opacity:1"
   d="m 408.349,419.041 c 1.948,0.706 6.575,0.305 6.579,0.305 0.048,-0.004 -1.19,-2.97 -1.29,-3.148 -1.153,-2.062 -4.593,-5.368 -7.187,-4.847 -1.868,0.375 -2.796,2.329 -2.257,4.076 0.551,1.784 2.497,3.012 4.155,3.614 z"
   id="path1841" />

		<path
   style="fill:#2eb455;fill-opacity:1"
   d="m 410.808,432.361 c 1.984,0.161 6.043,-1.303 6.365,-1.421 0.801,2.273 1.807,4.541 2.952,6.78 0.653,1.281 1.351,2.55 2.066,3.814 -0.413,-0.528 -0.785,-0.998 -0.844,-1.058 -1.657,-1.684 -5.848,-3.964 -8.211,-2.777 -1.704,0.855 -2.082,2.984 -1.101,4.527 1.002,1.576 3.203,2.246 4.962,2.388 1.785,0.145 5.27,-1.034 6.188,-1.358 0.28,0.482 0.553,0.967 0.835,1.447 1.35,2.308 2.707,4.605 3.97,6.899 0.445,0.808 0.854,1.62 1.266,2.432 -0.367,-0.469 -0.68,-0.861 -0.734,-0.916 -1.657,-1.684 -5.848,-3.965 -8.211,-2.777 -1.703,0.855 -2.082,2.984 -1.101,4.527 1.003,1.576 3.203,2.246 4.962,2.388 1.703,0.138 4.93,-0.921 6.023,-1.301 0.397,0.844 0.796,1.688 1.142,2.523 0.224,0.576 0.48,1.114 0.671,1.705 0.203,0.581 0.404,1.156 0.603,1.726 0.343,1.11 0.703,2.254 1.01,3.346 0.219,0.758 0.414,1.484 0.613,2.215 -0.434,-0.81 -1.316,-2.377 -1.405,-2.5 -1.382,-1.916 -5.179,-4.804 -7.696,-3.989 -1.813,0.588 -2.51,2.635 -1.773,4.308 0.752,1.709 2.826,2.706 4.542,3.112 1.89,0.448 5.962,-0.332 6.47,-0.433 0.324,1.211 0.629,2.391 0.898,3.51 0.102,0.421 0.198,0.829 0.293,1.233 h 1.647 c -0.133,-0.525 -0.273,-1.064 -0.421,-1.618 -0.324,-1.231 -0.696,-2.539 -1.09,-3.88 0.301,-0.142 2.006,-0.962 3.502,-1.929 1.445,1.377 5.017,2.868 5.479,3.057 -0.397,1.189 -0.795,2.341 -1.188,3.423 -0.116,0.322 -0.231,0.636 -0.346,0.947 h 1.68 c 0.049,-0.143 0.097,-0.284 0.146,-0.43 0.408,-1.205 0.821,-2.502 1.231,-3.837 0.503,0.072 4.619,0.637 6.486,0.089 1.692,-0.498 3.711,-1.603 4.371,-3.35 0.646,-1.71 -0.159,-3.717 -2.001,-4.207 -2.556,-0.681 -6.194,2.406 -7.473,4.393 -0.076,0.117 -0.752,1.48 -1.164,2.347 0.165,-0.546 0.331,-1.075 0.494,-1.64 0.33,-1.114 0.626,-2.236 0.949,-3.441 0.136,-0.588 0.273,-1.181 0.411,-1.781 0.15,-0.592 0.233,-1.236 0.353,-1.859 0.249,-1.451 0.43,-2.933 0.58,-4.43 0.976,0.286 4.458,1.253 6.215,1.016 1.749,-0.236 3.91,-1.022 4.827,-2.649 0.898,-1.593 0.407,-3.699 -1.34,-4.463 -2.424,-1.06 -6.488,1.44 -8.052,3.21 -0.098,0.11 -1.077,1.507 -1.601,2.284 0.083,-0.901 0.17,-1.799 0.225,-2.713 0.157,-2.638 0.234,-5.314 0.323,-7.983 0.027,-0.818 0.063,-1.632 0.097,-2.447 0.346,0.106 4.46,1.345 6.428,1.079 1.749,-0.235 3.911,-1.022 4.828,-2.649 0.898,-1.592 0.407,-3.698 -1.34,-4.462 -2.424,-1.06 -6.488,1.44 -8.052,3.21 -0.118,0.133 -1.525,2.145 -1.858,2.674 0.074,-1.796 0.165,-3.584 0.326,-5.344 0.219,-2.428 0.568,-4.798 1.076,-7.07 0.161,0.05 4.449,1.362 6.464,1.09 1.749,-0.236 3.911,-1.022 4.828,-2.649 0.898,-1.593 0.407,-3.698 -1.34,-4.462 -2.424,-1.06 -6.487,1.44 -8.052,3.21 -0.122,0.139 -1.635,2.303 -1.882,2.716 0.031,-0.135 0.048,-0.278 0.08,-0.413 0.573,-2.418 1.432,-4.688 2.34,-6.774 0.525,-1.213 1.096,-2.344 1.674,-3.431 0.774,0.326 4.325,1.779 6.166,1.734 1.764,-0.042 3.999,-0.587 5.089,-2.103 1.068,-1.485 0.81,-3.632 -0.841,-4.582 -2.293,-1.32 -6.607,0.719 -8.356,2.306 -0.095,0.086 -0.965,1.071 -1.588,1.797 0.269,-0.487 0.537,-0.994 0.804,-1.455 0.998,-1.734 2.019,-3.26 2.934,-4.605 0.526,-0.76 1.017,-1.437 1.484,-2.066 0.926,-0.076 4.654,-0.428 6.239,-1.299 1.545,-0.851 3.279,-2.363 3.548,-4.212 0.263,-1.81 -0.955,-3.597 -2.859,-3.679 -2.643,-0.115 -5.532,3.682 -6.353,5.897 -0.071,0.192 -0.837,3.313 -0.788,3.309 0,0 0.045,-0.003 0.056,-0.004 -0.461,0.596 -0.948,1.24 -1.466,1.955 -0.946,1.327 -2.003,2.835 -3.042,4.554 -1.044,1.715 -2.129,3.608 -3.092,5.705 -0.968,2.1 -1.879,4.359 -2.517,6.808 -0.007,0.027 -0.011,0.057 -0.018,0.085 -0.036,-0.774 -0.208,-2.936 -0.241,-3.1 -0.453,-2.318 -2.69,-6.533 -5.317,-6.847 -1.892,-0.226 -3.383,1.341 -3.415,3.169 -0.033,1.867 1.432,3.64 2.821,4.729 1.566,1.228 5.759,2.246 6.092,2.326 -0.586,2.338 -0.997,4.784 -1.278,7.283 -0.162,1.429 -0.28,2.873 -0.38,4.322 -0.053,-0.668 -0.104,-1.266 -0.121,-1.348 -0.453,-2.319 -2.69,-6.532 -5.317,-6.846 -1.893,-0.226 -3.383,1.341 -3.415,3.169 -0.034,1.867 1.432,3.64 2.82,4.729 1.409,1.105 4.966,2.045 5.911,2.281 -0.033,0.556 -0.072,1.112 -0.102,1.668 -0.147,2.67 -0.282,5.335 -0.495,7.944 -0.074,0.92 -0.182,1.823 -0.286,2.726 -0.047,-0.593 -0.092,-1.093 -0.107,-1.168 -0.453,-2.319 -2.69,-6.533 -5.316,-6.847 -1.893,-0.226 -3.383,1.341 -3.416,3.17 -0.034,1.867 1.433,3.64 2.821,4.729 1.344,1.055 4.62,1.952 5.741,2.237 -0.134,0.923 -0.267,1.847 -0.439,2.735 -0.131,0.604 -0.216,1.194 -0.381,1.793 -0.151,0.596 -0.301,1.187 -0.449,1.771 -0.327,1.116 -0.657,2.268 -1.003,3.349 -0.235,0.753 -0.473,1.467 -0.711,2.186 0.085,-0.915 0.213,-2.709 0.207,-2.86 -0.064,-1.568 -0.783,-4.079 -2.005,-5.798 -0.008,-0.232 -0.036,-0.461 -0.087,-0.688 -0.405,-1.783 -2.183,-3.013 -3.99,-2.406 -2.508,0.842 -3.839,5.424 -3.809,7.786 0.002,0.139 0.189,1.649 0.324,2.6 -0.164,-0.547 -0.317,-1.079 -0.492,-1.64 -0.34,-1.111 -0.712,-2.21 -1.107,-3.394 -0.211,-0.565 -0.425,-1.135 -0.64,-1.712 -0.201,-0.576 -0.487,-1.159 -0.731,-1.745 -0.593,-1.347 -1.259,-2.684 -1.96,-4.016 0.973,-0.3 4.41,-1.414 5.744,-2.581 1.329,-1.161 2.698,-3.01 2.565,-4.872 -0.13,-1.824 -1.701,-3.31 -3.579,-2.983 -2.607,0.453 -4.617,4.78 -4.946,7.12 -0.02,0.146 -0.067,1.851 -0.075,2.788 -0.428,-0.797 -0.851,-1.595 -1.309,-2.387 -1.324,-2.288 -2.735,-4.562 -4.134,-6.837 -0.429,-0.697 -0.847,-1.396 -1.269,-2.094 0.347,-0.103 4.462,-1.34 5.957,-2.646 1.328,-1.161 2.698,-3.01 2.565,-4.873 -0.13,-1.824 -1.701,-3.309 -3.579,-2.982 -2.607,0.453 -4.617,4.78 -4.946,7.119 -0.025,0.176 -0.089,2.63 -0.075,3.254 -0.928,-1.538 -1.839,-3.08 -2.676,-4.636 -1.157,-2.146 -2.173,-4.315 -3.003,-6.49 0.162,-0.048 4.462,-1.319 5.993,-2.657 1.328,-1.161 2.698,-3.01 2.565,-4.873 -0.13,-1.824 -1.701,-3.309 -3.579,-2.983 -2.606,0.453 -4.617,4.78 -4.945,7.119 -0.026,0.184 -0.093,2.824 -0.071,3.303 -0.049,-0.129 -0.115,-0.258 -0.162,-0.387 -0.856,-2.333 -1.392,-4.701 -1.785,-6.942 -0.231,-1.301 -0.379,-2.559 -0.496,-3.785 0.825,-0.155 4.589,-0.903 6.099,-1.955 1.448,-1.009 3.012,-2.696 3.085,-4.561 0.071,-1.827 -1.328,-3.477 -3.23,-3.358 -2.641,0.164 -5.114,4.244 -5.697,6.533 -0.032,0.125 -0.214,1.426 -0.334,2.375 -0.044,-0.554 -0.1,-1.126 -0.132,-1.657 -0.124,-1.997 -0.115,-3.833 -0.094,-5.459 0.02,-0.925 0.056,-1.76 0.098,-2.542 0.73,-0.574 3.646,-2.925 4.486,-4.526 0.82,-1.562 1.431,-3.78 0.636,-5.47 -0.779,-1.655 -2.78,-2.473 -4.414,-1.492 -2.268,1.363 -2.583,6.123 -2.046,8.424 0.047,0.198 1.13,3.224 1.168,3.195 0,0 0.036,-0.028 0.044,-0.035 -0.056,0.751 -0.106,1.557 -0.144,2.439 -0.057,1.629 -0.107,3.47 -0.025,5.477 0.076,2.006 0.215,4.184 0.568,6.464 0.351,2.286 0.837,4.673 1.656,7.067 0.009,0.027 0.022,0.054 0.032,0.081 -0.457,-0.626 -1.794,-2.333 -1.911,-2.453 -1.657,-1.684 -5.847,-3.964 -8.211,-2.777 -1.703,0.856 -2.082,2.984 -1.1,4.528 1.005,1.579 3.206,2.249 4.964,2.391 z"
   id="path1843" />

		<path
   style="fill:#2eb455;fill-opacity:1"
   d="m 455.287,417.06 c 0.042,0.023 0.646,-3.134 0.661,-3.337 0.175,-2.356 -0.87,-7.011 -3.321,-8.008 -1.765,-0.718 -3.616,0.4 -4.13,2.155 -0.526,1.792 0.42,3.889 1.472,5.306 1.234,1.664 5.315,3.882 5.318,3.884 z"
   id="path1845" />

	</g>
      <g
         id="g1868"
         transform="matrix(4.882121,0,0,4.882121,-122.38013,-166.55535)">
			<polygon
   style="fill:#506fde;fill-opacity:1;stroke:#263238;stroke-linecap:round;stroke-linejoin:round;stroke-miterlimit:10"
   points="166.275,110.275 170.83,114.999 176.769,115.912 178.658,121.547 177.273,125.36 173.224,127.216 163.303,125.595 163.033,124.38 167.725,121.107 164.486,115.134 155.611,113.918 150.887,109.868 152.912,107.506 "
   id="polygon1850" />

			<path
   style="fill:#506fde;fill-opacity:1;stroke:#263238;stroke-linecap:round;stroke-linejoin:round;stroke-miterlimit:10"
   d="m 260.608,230.824 -10.596,-1.79 -12.789,-1.622 -9.415,2.091 -9.212,0.134 -9.246,4.284 -5.399,1.518 -3.341,0.742 -5.568,5.061 -5.535,3.779 -9.347,-3.342 0.238,-8.976 -5.635,-0.98 -6.074,1.349 -1.518,-2.531 -0.606,-5.602 -2.8,-2.565 -4.117,1.552 -0.541,3.307 -5.096,1.45 -5.77,-4.455 -3.441,-6.884 2.667,-9.516 8.942,-1.349 2.902,1.587 3.645,-0.81 3.949,-3.745 4.218,0.338 7.558,8.201 2.058,-0.776 -2.159,-6.851 -2.632,-3.239 -0.674,-5.906 10.158,-7.355 -0.977,-11.575 3.982,-5.027 2.397,-7.862 2.902,-1.282 5.973,-6.107 -0.236,-2.497 -4.792,1.383 -1.451,-2.227 -3.341,0.742 -4.893,2.361 1.553,-4.488 9.956,-5.398 1.822,-3.273 5.736,5.737 3.341,2.126 3.982,-2.159 -2.699,-3.543 -7.39,-3.139 -9.11,-6.582 -8.74,-3.477 -7.559,0.404 -4.454,-2.835 -5.13,-0.136 -0.337,1.35 1.348,8.943 1.889,2.767 -0.575,10.326 -7.154,-3.51 -0.033,-4.454 -7.052,-1.621 -3.475,-2.734 -0.168,-7.93 7.391,-8.334 -1.011,-7.424 -3.273,1.046 -2.733,-2.261 -1.923,-4.353 -2.193,0.168 -0.136,5.129 -3.206,1.35 -3.879,-10.293 -2.767,-0.979 -4.656,-0.878 -4.32,3.509 7.356,4.421 2.361,4.893 -12.755,-5.772 -9.414,-6.514 -2.429,-8.065 -8.436,-0.676 -5.198,5.297 c 0,0 -2.633,2.497 -4.016,3.441 -1.384,0.945 -7.019,2.834 -7.019,2.834 l -0.068,5.433 -6.918,1.855 1.349,3.206 11.642,-0.673 7.187,5.097 2.361,10.63 -1.25,10.157 2.833,9.888 -5.199,16.77 3.102,22.576 5.566,12.149 6.106,8.842 4.691,-0.404 -2.598,-4.522 -3.239,-3.105 -3.003,-6.344 2.599,-1.215 6.68,9.99 5.196,9.044 1.753,7.896 7.322,5.704 12.012,5.3 16.737,0.744 5.871,3.477 4.723,4.05 6.209,2.127 7.086,0.338 6.614,-1.787 c 0,0 0.371,3.105 0.708,4.623 0.337,1.519 -2.768,7.626 -2.768,7.626 l -1.992,6.816 3.913,6.142 7.289,1.249 11.573,7.628 4.657,0.878 1.012,4.556 1.002,2.003 c 23.302,-9.265 42.836,-24.79 57.04,-44.133 l -0.332,-2.237 4.895,-16.703 -4.555,-1.856 z"
   id="path1852" />

			<path
   style="fill:#506fde;fill-opacity:1;stroke:#263238;stroke-linecap:round;stroke-linejoin:round;stroke-miterlimit:10"
   d="m 265.552,103.844 -4.622,-5.028 -5.736,-5.737 -3.238,-8.842 5.669,-0.303 -0.37,-3.105 -4.016,0.573 3.004,-2.26 3.172,-2.935 -0.674,-3.037 -4.724,-4.05 -2.23,-6.363 C 221.949,39.28 182.208,28.887 142.252,37.76 124.089,41.794 107.657,49.422 93.522,59.72 l 8.105,3.405 -3.038,6.411 -5.501,2.496 1.214,8.335 -2.227,1.451 -2.295,4.015 1.518,5.4 5.298,-0.539 -0.979,5.635 5.163,-1.146 6.312,-13.193 -0.168,-5.062 8.369,-2.496 1.317,-4.117 8.605,-2.867 -0.235,-5.365 6.31,-1.72 c 0,0 4.016,-3.441 4.927,-3.644 0.911,-0.202 5.5,0.372 5.5,0.372 l 5.365,2.633 6.378,-1.416 4.725,-4.555 7.12,-0.944 c 0,0 2.092,0.81 3.611,0.473 1.518,-0.337 5.602,-3.475 5.602,-3.475 l 10.022,3.511 4.252,1.924 1.012,4.555 4.691,-0.404 0.911,-3.07 4.353,0.945 0.236,2.497 -8.572,4.453 6.647,5.535 12.283,3.646 5.905,5.063 6.816,-0.876 0.844,-3.374 2.295,-1.147 -9.246,-4.321 -4.994,0.472 3.678,-2.092 -4.791,-4.353 5.096,-1.451 7.491,2.161 3.137,6.952 4.218,3.206 4.689,8.201 7.761,3.376 2.226,10.023 7.997,3.005 0.438,3.408 -0.034,4.151 3.037,5.062 1.214,2.598 5.365,-0.235 1.283,-5.703 z"
   id="path1854" />

			<path
   style="fill:#506fde;fill-opacity:1;stroke:#263238;stroke-linecap:round;stroke-linejoin:round;stroke-miterlimit:10"
   d="m 262.706,72.371 0.387,1.744 -0.439,5.196 1.855,4.05 3.611,0.473 1.282,5.771 -3.982,-0.709 2.731,16.603 -2.161,7.491 4.318,7.964 4.758,2.768 3.642,16.401 6.78,11.877 6.41,8.775 7.39,0.271 1.081,-6.614 0.818,-0.995 c -0.511,-5.357 -1.353,-10.741 -2.549,-16.129 -5.69,-25.62 -18.522,-47.805 -35.932,-64.937 z"
   id="path1856" />

			<polygon
   style="fill:#506fde;fill-opacity:1;stroke:#263238;stroke-linecap:round;stroke-linejoin:round;stroke-miterlimit:10"
   points="201.976,113.182 198.096,108.626 194.791,96.612 196.681,90.775 192.127,86.05 170.126,81.694 161.386,83.953 160.541,90.196 156.02,87.057 149.675,90.06 151.294,100.217 157.637,102.951 160.304,96.304 165.871,99.848 177.107,105.957 180.886,114.36 191.008,122.629 203.292,117.67 "
   id="polygon1858" />

			<polygon
   style="fill:#506fde;fill-opacity:1;stroke:#263238;stroke-linecap:round;stroke-linejoin:round;stroke-miterlimit:10"
   points="210.009,100.563 210.011,89.09 205.186,88.886 201.979,93.104 206.061,101.439 "
   id="polygon1860" />

			<polygon
   style="fill:#506fde;fill-opacity:1;stroke:#263238;stroke-linecap:round;stroke-linejoin:round;stroke-miterlimit:10"
   points="226.309,89.294 229.885,96.786 234.846,97.596 235.487,96.18 231.742,92.231 240.313,93.514 239.537,88.588 227.997,85.414 225.062,82.242 222.834,83.692 "
   id="polygon1862" />

			<polygon
   style="fill:#ffffff;stroke:#263238;stroke-linecap:round;stroke-linejoin:round;stroke-miterlimit:10"
   points="175.202,217.922 174.257,219.406 183.975,220.116 188.564,223.559 194.47,222.885 195.854,219.072 188.598,219.408 "
   id="polygon1864" />

			<polygon
   style="fill:#ffffff;stroke:#263238;stroke-linecap:round;stroke-linejoin:round;stroke-miterlimit:10"
   points="198.991,223.155 206.888,221.402 207.867,218.635 205.201,219.545 203.514,217.689 197.541,220.928 "
   id="polygon1866" />

		</g>
      <g
         id="g1886"
         transform="matrix(4.882121,0,0,4.882121,-122.38013,-166.55535)">
			
				<circle
   style="fill:none;stroke:#263238;stroke-linecap:round;stroke-linejoin:round;stroke-miterlimit:10"
   cx="170.703"
   cy="165.589"
   r="130.964"
   id="circle1870" />

			
				<ellipse
   style="fill:none;stroke:#263238;stroke-linecap:round;stroke-linejoin:round;stroke-miterlimit:10"
   cx="170.703"
   cy="165.589"
   rx="82.097"
   ry="130.964"
   id="ellipse1872" />

			
				<ellipse
   style="fill:none;stroke:#263238;stroke-linecap:round;stroke-linejoin:round;stroke-miterlimit:10"
   cx="170.703"
   cy="165.589"
   rx="29.893"
   ry="130.964"
   id="ellipse1874" />

			
				<line
   style="fill:none;stroke:#263238;stroke-linecap:round;stroke-linejoin:round;stroke-miterlimit:10"
   x1="98.843002"
   y1="56.915001"
   x2="243.24001"
   y2="56.915001"
   id="line1876" />

			
				<line
   style="fill:none;stroke:#263238;stroke-linecap:round;stroke-linejoin:round;stroke-miterlimit:10"
   x1="50.407001"
   y1="114.034"
   x2="290.63501"
   y2="114.034"
   id="line1878" />

			
				<line
   style="fill:none;stroke:#263238;stroke-linecap:round;stroke-linejoin:round;stroke-miterlimit:10"
   x1="98.843002"
   y1="274.138"
   x2="243.24001"
   y2="274.138"
   id="line1880" />

			
				<line
   style="fill:none;stroke:#263238;stroke-linecap:round;stroke-linejoin:round;stroke-miterlimit:10"
   x1="50.407001"
   y1="217.019"
   x2="290.63501"
   y2="217.019"
   id="line1882" />

			
				<line
   style="fill:none;stroke:#263238;stroke-linecap:round;stroke-linejoin:round;stroke-miterlimit:10"
   x1="301.66599"
   y1="165.589"
   x2="39.738998"
   y2="165.589"
   id="line1884" />

		</g>
      <g
         id="g1892"
         transform="matrix(4.882121,0,0,4.882121,-122.38013,-166.55535)">
			
				<rect
   x="145.314"
   y="145.51601"
   style="fill:#ffffff;stroke:#263238;stroke-linecap:round;stroke-linejoin:round;stroke-miterlimit:10"
   width="48.41"
   height="41.493999"
   id="rect1888" />

			<polygon
   style="fill:#263238;stroke:#263238;stroke-linecap:round;stroke-linejoin:round;stroke-miterlimit:10"
   points="187.881,180.408 187.881,163.658 181.923,163.658 181.923,158.125 178.006,158.125 178.006,152.431 161.346,152.431 161.346,158.125 157.429,158.125 157.429,163.658 151.471,163.658 151.471,180.408 157.429,180.408 161.346,180.408 178.006,180.408 181.923,180.408 "
   id="polygon1890" />

		</g>
      <g
         id="g1901"
         transform="matrix(4.882121,0,0,4.882121,-122.38013,-166.55535)">
			<polyline
   style="fill:#02133e;fill-opacity:1;stroke:#263238;stroke-linecap:round;stroke-linejoin:round;stroke-miterlimit:10"
   points="     332.902,472.041 332.902,362.052 425.698,365.997 425.698,471.909    "
   id="polyline1897" />

			<polyline
   style="fill:none;stroke:#263238;stroke-linecap:round;stroke-linejoin:round;stroke-miterlimit:10"
   points="     367.156,398.797 378.159,404.194 378.159,472.714    "
   id="polyline1899" />

		</g>
      <polygon
         style="fill:#ffffff;stroke:#263238;stroke-linecap:round;stroke-linejoin:round;stroke-miterlimit:10"
         points="333.967,334.971 334.86,313.836 307.783,308.7 305.39,320.683 "
         id="polygon1903"
         transform="matrix(4.882121,0,0,4.882121,-122.38013,-166.55535)" />
      <g
         id="g1915"
         transform="matrix(4.882121,0,0,4.882121,-122.38013,-166.55535)">
			<g
   id="g1911">
				<path
   style="fill:#ffffff;stroke:#263238;stroke-linecap:round;stroke-linejoin:round;stroke-miterlimit:10"
   d="m 359.267,226.076 c 0,0 -32.385,10.795 -34.461,11.625 -2.076,0.83 -4.36,3.322 -4.152,5.398 0.208,2.076 -12.871,63.94 -12.871,65.601 0,1.661 23.251,8.304 23.251,8.304 0,0 0.83,47.955 1.038,49.201 0.207,1.246 1.597,5.977 25.95,6.435 20.143,0.379 49.049,1.211 55.636,0.83 11.995,-0.694 12.456,-4.775 13.079,-6.02 0.623,-1.246 0,-56.882 0,-56.882 l 42.068,19.958 c 0,0 0.415,-0.415 0.208,-5.605 -0.208,-5.19 -15.08,-44.039 -21.723,-61.27 -6.643,-17.231 -9.965,-22.005 -18.061,-28.026 -8.096,-6.02 -27.61,-14.117 -27.61,-14.117 0,0 -15.985,3.322 -27.403,3.529 -11.42,0.209 -14.949,1.039 -14.949,1.039 z"
   id="path1905" />

				
					<line
   style="fill:none;stroke:#263238;stroke-linecap:round;stroke-linejoin:round;stroke-miterlimit:10"
   x1="332.32199"
   y1="268.189"
   x2="332.41101"
   y2="264.815"
   id="line1907" />

				
					<line
   style="fill:none;stroke:#263238;stroke-linecap:round;stroke-linejoin:round;stroke-miterlimit:10"
   x1="331.034"
   y1="317.004"
   x2="332.23199"
   y2="271.586"
   id="line1909" />

			</g>

			<path
   style="fill:#ffffff;stroke:#263238;stroke-linecap:round;stroke-linejoin:round;stroke-miterlimit:10"
   d="m 459.102,295.546 c -18.603,-1.006 -27.488,11.602 -29.945,15.868 l 39.647,19.113 c 0,0 0.415,-0.415 0.207,-5.605 -0.104,-2.606 -6.021,-18.372 -9.909,-29.376 z"
   id="path1913" />

		</g>
      <g
         id="g1951"
         transform="matrix(4.882121,0,0,4.882121,-122.38013,-166.55535)">
			<path
   style="fill:#ffffff;stroke:#263238;stroke-linecap:round;stroke-linejoin:round;stroke-miterlimit:10"
   d="m 375.875,233.965 c 0,0 6.435,20.137 8.927,20.967 2.491,0.83 2.076,-5.397 2.076,-5.397 0,0 16.815,-26.157 16.193,-28.856 -0.623,-2.699 -1.661,-4.982 -4.775,-7.266 -3.114,-2.284 -4.567,-2.906 -5.605,-2.699 -1.038,0.208 -17.438,20.552 -17.438,20.552 z"
   id="path1917" />

			<path
   style="fill:#ffffff;stroke:#263238;stroke-linecap:round;stroke-linejoin:round;stroke-miterlimit:10"
   d="m 349.718,226.907 c 0,0 -1.246,14.947 -1.661,17.23 -0.415,2.284 -2.284,5.813 -0.83,6.436 1.453,0.623 8.096,-4.775 9.549,-7.058 1.453,-2.284 1.038,-3.114 1.453,-5.19 0.416,-2.076 -5.605,-12.664 -8.511,-11.418 z"
   id="path1919" />

			<path
   style="fill:#ffffff;stroke:#263238;stroke-linecap:round;stroke-linejoin:round;stroke-miterlimit:10"
   d="m 359.267,217.565 c 0,0 -10.172,7.681 -9.549,9.342 0.623,1.661 15.362,25.95 15.362,25.95 0,0 -0.83,-22.005 -1.453,-28.648 -0.623,-6.644 -4.36,-6.644 -4.36,-6.644 z"
   id="path1921" />

			<g
   id="g1927">
				<path
   style="fill:#ffffff;stroke:#263238;stroke-linecap:round;stroke-linejoin:round;stroke-miterlimit:10"
   d="m 356.153,208.638 8.927,44.218 c 0,0 3.944,-7.473 4.567,-8.096 0.623,-0.623 8.719,-14.947 8.719,-14.947 0,0 15.57,-11.003 15.57,-12.248 0,-1.246 0.83,-14.117 0.83,-14.117 0,0 -13.494,8.927 -17.646,9.965 -4.151,1.038 -20.967,-4.775 -20.967,-4.775 z"
   id="path1923" />

				<path
   style="fill:#263238;stroke:#263238;stroke-linecap:round;stroke-linejoin:round;stroke-miterlimit:10"
   d="m 356.153,208.638 3.764,18.646 17.732,-9.762 -0.529,-4.109 c -4.151,1.038 -20.967,-4.775 -20.967,-4.775 z"
   id="path1925" />

			</g>

			<g
   id="g1945">
				<path
   style="fill:#ffffff;stroke:#263238;stroke-linecap:round;stroke-linejoin:round;stroke-miterlimit:10"
   d="m 348.057,171.271 c 0,0 -2.491,-3.737 -3.944,1.453 -1.453,5.19 5.19,13.909 5.19,13.909 l 0.83,-15.155 z"
   id="path1929" />

				<path
   style="fill:#ffffff;stroke:#263238;stroke-linecap:round;stroke-linejoin:round;stroke-miterlimit:10"
   d="m 349.51,155.701 c 0,0 0,37.783 0.623,41.312 0.623,3.529 9.549,21.59 13.701,22.836 4.152,1.245 10.795,1.038 12.871,0.415 2.076,-0.623 16.4,-12.041 18.061,-16.815 1.661,-4.774 3.114,-11.418 3.114,-11.418 0,0 6.228,-3.322 7.681,-8.096 1.453,-4.775 0.83,-9.134 -0.623,-10.795 -1.453,-1.661 -2.491,-1.868 -2.491,-1.868 l -2.284,-3.322 c 0,0 0.623,-5.398 0.623,-6.643 0,-1.246 -1.246,-8.304 -9.342,-11.625 -8.096,-3.321 -31.555,-2.491 -36.537,-1.453 -4.982,1.037 -5.397,7.472 -5.397,7.472 z"
   id="path1931" />

				<path
   style="fill:#263238"
   d="m 363.627,176.253 c 0,1.72 -0.836,3.114 -1.868,3.114 -1.032,0 -1.868,-1.394 -1.868,-3.114 0,-1.72 0.837,-3.114 1.868,-3.114 1.031,0 1.868,1.394 1.868,3.114 z"
   id="path1933" />

				<path
   style="fill:#263238"
   d="m 384.802,178.122 c 0,1.72 -0.836,3.114 -1.868,3.114 -1.032,0 -1.868,-1.394 -1.868,-3.114 0,-1.72 0.836,-3.114 1.868,-3.114 1.031,0 1.868,1.394 1.868,3.114 z"
   id="path1935" />

				<path
   style="fill:none;stroke:#263238;stroke-linecap:round;stroke-linejoin:round;stroke-miterlimit:10"
   d="m 356.569,168.572 c 0,0 4.152,-4.152 8.927,-0.208"
   id="path1937" />

				<path
   style="fill:none;stroke:#263238;stroke-linecap:round;stroke-linejoin:round;stroke-miterlimit:10"
   d="m 378.574,168.987 c 0,0 4.775,-3.114 9.342,2.076"
   id="path1939" />

				<polyline
   style="fill:none;stroke:#263238;stroke-linecap:round;stroke-linejoin:round;stroke-miterlimit:10"
   points="      368.817,173.139 367.156,195.352 376.498,195.767     "
   id="polyline1941" />

				
					<line
   style="fill:none;stroke:#263238;stroke-linecap:round;stroke-linejoin:round;stroke-miterlimit:10"
   x1="368.194"
   y1="204.90199"
   x2="372.34601"
   y2="205.317"
   id="line1943" />

			</g>

			<path
   style="fill:#263238;stroke:#263238;stroke-linecap:round;stroke-linejoin:round;stroke-miterlimit:10"
   d="m 346.189,152.587 c 0,0 -2.491,7.889 -1.453,9.965 1.038,2.076 2.906,6.851 2.906,6.851 0,0 0.623,6.02 1.246,7.266 l 0.623,-20.967 c -0.001,-0.001 -0.624,-5.399 -3.322,-3.115 z"
   id="path1947" />

			<path
   style="fill:#263238;stroke:#263238;stroke-linecap:round;stroke-linejoin:round;stroke-miterlimit:10"
   d="m 356.984,134.941 c 0,0 -18.891,7.681 -18.061,12.663 0.83,4.982 7.266,4.982 7.266,4.982 0,0 -4.982,5.398 5.19,7.266 10.172,1.868 29.271,-6.851 29.271,-6.851 0,0 -2.699,6.02 0,6.643 2.699,0.623 8.719,-0.208 8.719,-0.208 0,0 0.208,6.02 2.491,7.473 2.284,1.453 5.605,1.661 5.605,1.661 0,0 -1.246,11.625 -0.208,12.248 1.038,0.623 1.246,-0.415 1.453,-1.038 0.208,-0.623 1.661,-7.473 1.661,-7.473 l 2.076,-1.038 0.623,-5.397 c 0,0 5.398,-8.512 3.737,-13.494 -1.661,-4.982 -7.058,-10.587 -7.058,-10.587 0,0 -7.474,-10.172 -21.59,-11.625 -14.117,-1.453 -21.175,4.775 -21.175,4.775 z"
   id="path1949" />

		</g>
      <path
         style="fill:#ffffff;stroke:#263238;stroke-width:4.88212;stroke-linecap:round;stroke-linejoin:round;stroke-miterlimit:10"
         d="m 1368.0631,1310.1642 c 0,0 3.1978,10.8773 -0.6396,52.4632 -3.8373,41.5859 -4.4769,90.8514 14.0752,118.3622 18.552,27.5107 71.0153,41.5859 88.9327,33.9063 17.9125,-7.6796 23.0338,-21.1103 23.6734,-54.3819 0.6395,-33.2668 -44.7837,-159.3085 -44.7837,-159.3085 l -79.974,-10.2378 z"
         id="path1953" />
      <path
         style="fill:#ffffff;stroke:#263238;stroke-width:4.88212;stroke-linecap:round;stroke-linejoin:round;stroke-miterlimit:10"
         d="m 1369.3324,1236.2098 c 0,0 -23.0973,-9.8961 -34.4092,-23.0973 -11.3118,-13.1964 -25.4505,-33.9356 -29.2244,-35.3515 -3.7689,-1.4158 -22.6237,11.7855 -16.028,28.7509 6.6007,16.9702 32.0512,37.7095 32.0512,37.7095 0,0 14.1386,22.155 16.4967,27.8085 2.358,5.6535 9.2955,26.8517 16.3941,34.7119 19.4406,21.5204 33.0959,27.0323 62.3203,27.5059 29.2244,0.4686 33.6573,-11.0873 36.9576,-23.3415 3.3004,-12.2541 4.6625,-33.545 2.778,-34.0186 -1.8845,-0.4735 -80.267,-16.6431 -83.5673,-24.6547 -3.3003,-8.0067 -3.769,-16.0231 -3.769,-16.0231 z"
         id="path1955" />
      <g
         id="g1997"
         transform="matrix(4.882121,0,0,4.882121,-122.38013,-166.55535)">
			<path
   style="fill:none;stroke:#263238;stroke-width:12;stroke-linecap:round;stroke-linejoin:round;stroke-miterlimit:10"
   d="m 267.156,360.571 v -29.788 c 0,-21.975 17.815,-39.79 39.79,-39.79 v 0 c 21.975,0 39.79,17.815 39.79,39.79 v 83.06 c 0,17.172 13.921,31.093 31.093,31.093 v 0 c 17.172,0 31.093,-13.921 31.093,-31.093 V 220.544"
   id="path1957" />

			<g
   id="g1995">
				<g
   id="g1971">
					
						<rect
   x="257.64099"
   y="354.25299"
   style="fill:#02133e;fill-opacity:1;stroke:#263238;stroke-linecap:round;stroke-linejoin:round;stroke-miterlimit:10"
   width="19.764999"
   height="21.198999"
   id="rect1959" />

					
						<rect
   x="273.94601"
   y="354.25299"
   style="fill:#02133e;fill-opacity:1;stroke:#263238;stroke-linecap:round;stroke-linejoin:round;stroke-miterlimit:10"
   width="3.461"
   height="21.198999"
   id="rect1961" />

					
						<line
   style="fill:none;stroke:#263238;stroke-linecap:round;stroke-linejoin:round;stroke-miterlimit:10"
   x1="258.27899"
   y1="359.672"
   x2="277.24701"
   y2="359.672"
   id="line1963" />

					
						<line
   style="fill:none;stroke:#263238;stroke-linecap:round;stroke-linejoin:round;stroke-miterlimit:10"
   x1="258.27899"
   y1="363.65701"
   x2="277.24701"
   y2="363.65701"
   id="line1965" />

					
						<line
   style="fill:none;stroke:#263238;stroke-linecap:round;stroke-linejoin:round;stroke-miterlimit:10"
   x1="258.27899"
   y1="367.642"
   x2="277.24701"
   y2="367.642"
   id="line1967" />

					
						<line
   style="fill:none;stroke:#263238;stroke-linecap:round;stroke-linejoin:round;stroke-miterlimit:10"
   x1="258.27899"
   y1="371.62701"
   x2="277.24701"
   y2="371.62701"
   id="line1969" />

				</g>

				<g
   id="g1993">
					
						<rect
   x="266.08899"
   y="379.43701"
   style="fill:#263238;stroke:#263238;stroke-linecap:round;stroke-linejoin:round;stroke-miterlimit:10"
   width="11.476"
   height="41.761002"
   id="rect1973" />

					<g
   id="g1987">
						
							<rect
   x="254.155"
   y="415.99799"
   style="fill:#ffffff;stroke:#263238;stroke-linecap:round;stroke-linejoin:round;stroke-miterlimit:10"
   width="21.733"
   height="24.881001"
   id="rect1975" />

						<g
   id="g1983">
							
								<rect
   x="257.72699"
   y="425.06601"
   style="fill:#cccccc;stroke:#263238;stroke-linecap:round;stroke-linejoin:round;stroke-miterlimit:10"
   width="1.8430001"
   height="15.813"
   id="rect1977" />

							
								<rect
   x="261.27301"
   y="425.06601"
   style="fill:#cccccc;stroke:#263238;stroke-linecap:round;stroke-linejoin:round;stroke-miterlimit:10"
   width="1.8430001"
   height="15.813"
   id="rect1979" />

							
								<rect
   x="264.82001"
   y="425.06601"
   style="fill:#cccccc;stroke:#263238;stroke-linecap:round;stroke-linejoin:round;stroke-miterlimit:10"
   width="1.8430001"
   height="15.813"
   id="rect1981" />

						</g>

						
							<rect
   x="270.79199"
   y="415.99799"
   style="fill:#ffffff;stroke:#263238;stroke-linecap:round;stroke-linejoin:round;stroke-miterlimit:10"
   width="5.0960002"
   height="24.881001"
   id="rect1985" />

					</g>

					<polygon
   style="fill:#02133e;fill-opacity:1;stroke:#263238;stroke-linecap:round;stroke-linejoin:round;stroke-miterlimit:10"
   points="281.379,373.676 266.967,373.676 265.319,421.717 268.568,421.717 271.542,381.454 275.66,381.454 275.66,440.831 281.379,440.831 "
   id="polygon1989" />

					<polygon
   style="fill:#263238;stroke:#263238;stroke-linecap:round;stroke-linejoin:round;stroke-miterlimit:10"
   points="250.495,373.676 266.967,373.676 265.319,421.717 252.142,421.717 "
   id="polygon1991" />

				</g>

			</g>

		</g>
      <g
         id="g2007"
         transform="matrix(4.882121,0,0,4.882121,-122.38013,-166.55535)">
			<path
   style="fill:#ffffff;stroke:#263238;stroke-linecap:round;stroke-linejoin:round;stroke-miterlimit:10"
   d="m 320.217,289.611 c 0,0 3.54,-0.708 4.169,1.18 0.629,1.888 0.079,6.764 -0.551,8.81 -0.629,2.045 -2.36,2.596 -3.304,2.517 -0.944,-0.079 -2.202,-1.18 -2.202,-1.18 0,0 1.258,-3.382 1.337,-6.686 0.08,-3.304 0.551,-4.641 0.551,-4.641 z"
   id="path1999" />

			<path
   style="fill:#ffffff;stroke:#263238;stroke-linecap:round;stroke-linejoin:round;stroke-miterlimit:10"
   d="m 314.869,289.198 c 0,0 2.832,-0.315 4.326,0.551 1.494,0.865 0.708,5.506 0.393,8.495 -0.315,2.989 -1.809,4.326 -3.382,4.247 -1.573,-0.079 -3.854,-1.416 -3.854,-2.202 0,-0.786 -0.079,-1.18 -0.079,-1.18 0,0 0.629,-0.472 1.101,-3.304 0.472,-2.831 1.495,-6.607 1.495,-6.607 z"
   id="path2001" />

			<path
   style="fill:#ffffff;stroke:#263238;stroke-linecap:round;stroke-linejoin:round;stroke-miterlimit:10"
   d="m 309.033,289.895 c 0,0 2.315,-1.052 4.209,-0.211 1.894,0.842 1.183,2.17 0.762,6.799 -0.421,4.63 -1.966,6.214 -3.854,5.821 -1.253,-0.261 -3.295,-0.768 -3.468,-2.59 -0.174,-1.823 2.351,-9.819 2.351,-9.819 z"
   id="path2003" />

			<path
   style="fill:#ffffff;stroke:#263238;stroke-linecap:round;stroke-linejoin:round;stroke-miterlimit:10"
   d="m 307.295,294.005 c 0,0 0.746,-2.537 0,-4.477 -0.746,-1.94 -4.626,-2.238 -5.223,-0.746 -0.597,1.492 -1.492,8.953 -0.895,9.848 0.597,0.895 3.16,1.692 4.178,0.895 1.018,-0.796 1.94,-5.52 1.94,-5.52 z"
   id="path2005" />

		</g>
      <path
         style="fill:#ffffff;stroke:#263238;stroke-width:4.88212;stroke-linecap:round;stroke-linejoin:round;stroke-miterlimit:10"
         d="m 1981.9751,1248.4786 c 0,0 -41.0879,-37.5191 -62.6473,-68.0715 -21.5595,-30.5523 -48.7431,-41.3759 -72.9633,-49.0311 -24.2251,-7.6552 -42.3769,4.0766 -41.5615,17.2095 0.8202,13.1329 13.9189,21.9012 13.9189,21.9012 0,0 -12.674,63.2137 -7.6357,75.5947 5.0384,12.3811 0.8837,22.0477 8.1288,33.3791 7.245,11.3363 21.8865,18.9573 66.8167,25.5286 44.9301,6.5713 50.3932,6.6885 50.3932,6.6885 0,0 114.188,188.6256 140.3757,210.9516 26.1877,22.3259 77.9381,24.4155 96.4023,5.8829 18.4642,-18.5325 19.0842,-88.3078 9.4469,-102.0461 -9.6275,-13.7382 -200.6747,-177.9874 -200.6747,-177.9874 z"
         id="path2009" />
      <line
         style="fill:none;stroke:#263238;stroke-width:4.88212;stroke-linecap:round;stroke-linejoin:round;stroke-miterlimit:10"
         x1="2194.3669"
         y1="2139.8757"
         x2="2.4410601"
         y2="2139.8757"
         id="line2014" />
    </g>
  </g>
</svg>
